<svg width="251" height="106" viewBox="0 0 251 106" fill="none" xmlns="http://www.w3.org/2000/svg">
<path d="M1.51036 32.7647C0.453097 39.2631 2.81189 46.0674 8.12025 52.8381C13.4291 59.6095 21.651 66.2952 32.1942 72.5145C53.2773 84.9511 83.5306 95.4569 117.955 101.058C152.379 106.658 184.402 106.285 208.34 101.173C220.311 98.6165 230.229 94.8819 237.41 90.1428C244.591 85.404 248.985 79.6984 250.043 73.2C251.1 66.7016 248.741 59.8973 243.433 53.1266C238.124 46.3553 229.902 39.6696 219.359 33.4502C198.276 21.0136 168.022 10.5078 133.598 4.90714C99.1739 -0.693553 67.1506 -0.319908 43.2125 4.7919C31.2414 7.34824 21.3242 11.0828 14.1426 15.822C6.96174 20.5607 2.56763 26.2664 1.51036 32.7647Z" fill="white" fill-opacity="0.1" stroke="url(#paint0_linear_64_2182)" stroke-width="1.2"/>
<defs>
<linearGradient id="paint0_linear_64_2182" x1="101.053" y1="103.5" x2="114.553" y2="11.5" gradientUnits="userSpaceOnUse">
<stop stop-color="#797979" stop-opacity="0"/>
<stop offset="1" stop-color="#ADADAD"/>
</linearGradient>
</defs>
</svg>
