<svg width="261" height="276" viewBox="0 0 261 276" fill="none" xmlns="http://www.w3.org/2000/svg">
<g filter="url(#filter0_b_64_192)">
<circle cx="124.992" cy="140.557" r="52" fill="black"/>
<circle cx="124.992" cy="140.557" r="51.25" stroke="url(#paint0_linear_64_192)" stroke-width="1.5"/>
</g>
<path d="M29.7338 75.4406L127.348 22.909L231.484 88.4432L225.658 193.07L130.19 248.755L22.519 188.732L29.7338 75.4406Z" stroke="white" stroke-opacity="0.5"/>
<path d="M44.9566 53.1237L164.994 28.4525L244.967 118.696L210.156 221.113L104.342 249.868L14.3221 165.028L44.9566 53.1237Z" stroke="white"/>
<path d="M185.828 181.35L184.873 182.526C184.444 183.053 184.054 183.446 183.704 183.702C183.354 183.959 182.961 184.116 182.527 184.176C181.804 184.271 181.125 184.061 180.489 183.544C180.124 183.247 179.881 182.92 179.758 182.563C179.631 182.228 179.611 181.889 179.696 181.546C179.267 181.868 178.81 182.05 178.324 182.093C177.689 182.144 177.065 181.921 176.452 181.423C175.886 180.962 175.559 180.413 175.472 179.775C175.359 178.884 175.696 177.954 176.485 176.984L178.064 175.04L185.828 181.35ZM183.746 181.629L181.523 179.822L181.229 180.183C180.876 180.617 180.715 181.022 180.747 181.395C180.777 181.754 180.99 182.095 181.385 182.417C181.704 182.675 182.028 182.784 182.357 182.743C182.715 182.699 183.068 182.463 183.415 182.037L183.746 181.629ZM180.545 179.027L178.217 177.135L177.63 177.857C177.195 178.392 176.977 178.866 176.977 179.279C176.971 179.699 177.154 180.06 177.527 180.363C177.86 180.634 178.217 180.75 178.597 180.711C179.025 180.659 179.473 180.347 179.939 179.772L180.545 179.027Z" fill="#080808"/>
<path d="M166.886 200.213L164.861 196.775L163.552 202.177L161.82 203.198L163.411 197.003L156.716 194.593L158.473 193.557L163.803 195.57L163.909 195.16L161.807 191.593L163.126 190.816L168.205 199.436L166.886 200.213Z" fill="#080808"/>
<path d="M143.917 200.096L145.617 202.107L149.712 200.879L150.066 198.251L151.647 197.776L149.92 209.351L142.337 200.57L143.917 200.096ZM149.522 202.439L146.62 203.31L149.017 206.13L149.522 202.439Z" fill="#080808"/>
<path d="M130.562 211.24L132.85 211.057L132.168 202.52L133.693 202.398L134.375 210.936L136.663 210.753L136.777 212.189L130.677 212.676L130.562 211.24Z" fill="#080808"/>
<path d="M117.36 202.322L118.081 204.855L122.318 205.421L123.723 203.172L125.359 203.39L119.021 213.228L115.724 202.104L117.36 202.322ZM121.503 206.765L118.5 206.364L119.523 209.92L121.503 206.765Z" fill="#080808"/>
<path d="M103.995 209.871L98.0703 207.477L101.819 198.201L103.238 198.774L100.028 206.715L103.116 207.963L104.982 203.345C105.162 202.9 105.322 202.544 105.462 202.278C105.598 202.02 105.81 201.75 106.097 201.466C106.375 201.18 106.693 200.979 107.052 200.865C107.656 200.678 108.292 200.719 108.959 200.989C109.154 201.068 109.352 201.18 109.552 201.326L109.023 202.633C108.86 202.502 108.7 202.405 108.542 202.341C108.199 202.203 107.878 202.197 107.579 202.324C107.374 202.403 107.183 202.569 107.006 202.821C106.816 203.078 106.678 203.298 106.594 203.479C106.51 203.661 106.389 203.947 106.232 204.336L103.995 209.871Z" fill="#080808"/>
<path d="M87.9551 201.339C86.5672 201.523 85.2817 201.162 84.0986 200.257C82.9154 199.351 82.2317 198.204 82.0473 196.816C81.8629 195.429 82.2206 194.147 83.1202 192.972C84.0198 191.797 85.1635 191.117 86.5514 190.932C87.9393 190.748 89.2248 191.109 90.4079 192.014C91.5911 192.92 92.2748 194.067 92.4592 195.455C92.6436 196.843 92.2859 198.124 91.3863 199.299C90.4867 200.475 89.343 201.154 87.9551 201.339ZM91.009 195.573C90.8866 194.597 90.4005 193.784 89.5509 193.134C88.7012 192.484 87.7897 192.227 86.8163 192.363C85.8369 192.508 85.0098 193.02 84.3351 193.902C83.6604 194.783 83.3842 195.712 83.5067 196.687C83.623 197.67 84.106 198.487 84.9556 199.137C85.8053 199.788 86.7198 200.041 87.6993 199.896C88.6727 199.76 89.4967 199.251 90.1714 198.369C90.8461 197.488 91.1253 196.556 91.009 195.573Z" fill="#080808"/>
<path d="M79.8731 183.445L72.1554 189.812L68.9672 185.947L70.078 185.031L72.2926 187.715L78.8995 182.265L79.8731 183.445Z" fill="#080808"/>
<path d="M66.7189 96.4614L67.7167 95.3215C68.1646 94.8098 68.5682 94.4322 68.9276 94.1886C69.287 93.945 69.685 93.8016 70.1215 93.7584C70.8468 93.6889 71.518 93.9242 72.135 94.4643C72.4886 94.7739 72.72 95.1093 72.8291 95.4705C72.9438 95.8102 72.9522 96.1498 72.8543 96.4893C73.2946 96.1837 73.7584 96.0182 74.2457 95.9929C74.8816 95.9648 75.4968 96.2109 76.0913 96.7312C76.6405 97.212 76.9471 97.7727 77.011 98.4134C77.0917 99.308 76.7204 100.226 75.8971 101.166L74.2473 103.051L66.7189 96.4614ZM68.8102 96.2586L70.966 98.1456L71.2722 97.7957C71.6411 97.3743 71.8166 96.9764 71.7988 96.602C71.7819 96.2417 71.5816 95.8936 71.1978 95.5577C70.8893 95.2877 70.5695 95.1672 70.2384 95.1963C69.879 95.2273 69.5182 95.4497 69.1559 95.8636L68.8102 96.2586ZM71.9141 98.9755L74.1714 100.951L74.784 100.252C75.2384 99.7324 75.4732 99.2668 75.4883 98.8548C75.5101 98.4352 75.3403 98.0674 74.9791 97.7512C74.6556 97.468 74.3033 97.3391 73.9223 97.3644C73.4924 97.4001 73.0337 97.6963 72.5463 98.2531L71.9141 98.9755Z" fill="#080808"/>
<path d="M86.2963 78.2703L88.1902 81.7822L89.7026 76.4335L91.4718 75.4794L89.6479 81.6096L96.247 84.2713L94.4515 85.2396L89.2018 83.0261L89.0801 83.4326L91.0452 87.0765L89.6985 87.8027L84.9497 78.9965L86.2963 78.2703Z" fill="#080808"/>
<path d="M109.424 79.1561L107.803 77.0808L103.664 78.1506L103.208 80.7628L101.611 81.1758L103.782 69.6765L111.022 78.7432L109.424 79.1561ZM103.914 76.5988L106.847 75.8405L104.561 72.93L103.914 76.5988Z" fill="#080808"/>
<path d="M122.859 68.5264L120.566 68.6214L120.92 77.1791L119.391 77.2424L119.037 68.6847L116.744 68.7797L116.684 67.3409L122.799 67.0877L122.859 68.5264Z" fill="#080808"/>
<path d="M136.005 77.9152L135.388 75.355L131.177 74.6156L129.681 76.8048L128.056 76.5195L134.793 66.9504L137.63 78.2006L136.005 77.9152ZM132.047 73.3063L135.031 73.8303L134.155 70.2346L132.047 73.3063Z" fill="#080808"/>
<path d="M149.729 70.8841L155.553 73.5143L151.434 82.6325L150.04 82.0027L153.566 74.1969L150.531 72.8262L148.481 77.3648C148.283 77.8023 148.109 78.1515 147.958 78.4126C147.812 78.6645 147.589 78.9262 147.291 79.1975C147.002 79.473 146.676 79.6604 146.313 79.7598C145.702 79.9226 145.068 79.8559 144.412 79.5595C144.22 79.4731 144.028 79.3531 143.834 79.1997L144.414 77.9146C144.572 78.0516 144.728 78.1551 144.883 78.2251C145.22 78.3774 145.541 78.3961 145.845 78.2811C146.053 78.2103 146.25 78.0526 146.437 77.808C146.638 77.5584 146.784 77.3445 146.875 77.1663C146.967 76.9882 147.099 76.7077 147.272 76.325L149.729 70.8841Z" fill="#080808"/>
<path d="M165.225 79.8743C166.619 79.7407 167.891 80.1479 169.04 81.0961C170.189 82.0443 170.831 83.2152 170.964 84.6089C171.098 86.0026 170.694 87.2703 169.752 88.4119C168.81 89.5536 167.643 90.1912 166.249 90.3249C164.855 90.4585 163.584 90.0512 162.434 89.1031C161.285 88.1549 160.643 86.9839 160.51 85.5902C160.376 84.1966 160.78 82.9289 161.722 81.7873C162.664 80.6456 163.832 80.008 165.225 79.8743ZM161.963 85.5254C162.05 86.5045 162.506 87.3345 163.332 88.0154C164.157 88.6963 165.059 88.9864 166.036 88.8855C167.02 88.7769 167.866 88.2945 168.572 87.4383C169.278 86.582 169.588 85.6644 169.501 84.6853C169.421 83.6985 168.968 82.8647 168.143 82.1838C167.317 81.5028 166.413 81.2167 165.428 81.3253C164.451 81.4261 163.609 81.9047 162.902 82.7609C162.196 83.6171 161.883 84.5387 161.963 85.5254Z" fill="#080808"/>
<path d="M172.843 98.2171L180.815 92.1714L183.842 96.1632L182.695 97.0334L180.592 94.2606L173.768 99.4362L172.843 98.2171Z" fill="#080808"/>
<circle cx="192.992" cy="140.557" r="3" fill="white" fill-opacity="0.7"/>
<circle cx="54.9922" cy="140.557" r="3" fill="white" fill-opacity="0.7"/>
<path d="M138.577 131.69C138.651 131.367 138.448 131.045 138.125 130.972L132.859 129.775C132.536 129.702 132.215 129.904 132.141 130.227C132.068 130.551 132.27 130.872 132.593 130.945L137.274 132.009L136.21 136.69C136.137 137.013 136.339 137.334 136.662 137.408C136.986 137.481 137.307 137.279 137.381 136.956L138.577 131.69ZM111.312 149.065L138.312 132.065L137.672 131.049L110.672 148.049L111.312 149.065Z" fill="white"/>
<defs>
<filter id="filter0_b_64_192" x="42.9922" y="58.5571" width="164" height="164" filterUnits="userSpaceOnUse" color-interpolation-filters="sRGB">
<feFlood flood-opacity="0" result="BackgroundImageFix"/>
<feGaussianBlur in="BackgroundImage" stdDeviation="15"/>
<feComposite in2="SourceAlpha" operator="in" result="effect1_backgroundBlur_64_192"/>
<feBlend mode="normal" in="SourceGraphic" in2="effect1_backgroundBlur_64_192" result="shape"/>
</filter>
<linearGradient id="paint0_linear_64_192" x1="133.5" y1="186.786" x2="134.5" y2="97.7856" gradientUnits="userSpaceOnUse">
<stop stop-color="white" stop-opacity="0"/>
<stop offset="1" stop-color="white"/>
</linearGradient>
</defs>
</svg>
