<svg width="22" height="84" viewBox="0 0 22 84" fill="none" xmlns="http://www.w3.org/2000/svg">
<path d="M7.41 48.4722L6 48.4722L6 41.7522L10.2 45.2172C10.83 45.7372 11.35 46.1372 11.76 46.4172C12.28 46.7672 12.76 46.9422 13.2 46.9422C13.65 46.9422 14.03 46.7972 14.34 46.5072C14.66 46.2172 14.82 45.8072 14.82 45.2772C14.82 44.7472 14.645 44.3272 14.295 44.0172C13.945 43.7072 13.515 43.5372 13.005 43.5072L13.005 42.0372C13.885 42.0772 14.615 42.3572 15.195 42.8772C15.845 43.4572 16.17 44.2372 16.17 45.2172C16.17 46.2272 15.875 47.0172 15.285 47.5872C14.695 48.1572 13.985 48.4422 13.155 48.4422C12.465 48.4422 11.765 48.2022 11.055 47.7222C10.665 47.4622 10.065 46.9872 9.255 46.2972L7.41 44.7372L7.41 48.4722ZM6.915 58.6926C6.195 58.0626 5.835 57.3076 5.835 56.4276C5.835 55.5476 6.195 54.7926 6.915 54.1626C7.885 53.3126 9.245 52.8876 10.995 52.8876C12.755 52.8876 14.12 53.3126 15.09 54.1626C15.81 54.7926 16.17 55.5476 16.17 56.4276C16.17 57.3076 15.81 58.0626 15.09 58.6926C14.12 59.5426 12.755 59.9676 10.995 59.9676C9.245 59.9676 7.885 59.5426 6.915 58.6926ZM13.995 57.7776C14.545 57.4176 14.82 56.9676 14.82 56.4276C14.82 55.8876 14.545 55.4376 13.995 55.0776C13.315 54.6176 12.32 54.3876 11.01 54.3876C9.71 54.3876 8.71 54.6176 8.01 55.0776C7.46 55.4376 7.185 55.8876 7.185 56.4276C7.185 56.9676 7.46 57.4176 8.01 57.7776C8.71 58.2376 9.71 58.4676 11.01 58.4676C12.32 58.4676 13.315 58.2376 13.995 57.7776ZM7.41 70.323L6 70.323L6 63.603L10.2 67.068C10.83 67.588 11.35 67.988 11.76 68.268C12.28 68.618 12.76 68.793 13.2 68.793C13.65 68.793 14.03 68.648 14.34 68.358C14.66 68.068 14.82 67.658 14.82 67.128C14.82 66.598 14.645 66.178 14.295 65.868C13.945 65.558 13.515 65.388 13.005 65.358L13.005 63.888C13.885 63.928 14.615 64.208 15.195 64.728C15.845 65.308 16.17 66.088 16.17 67.068C16.17 68.078 15.875 68.868 15.285 69.438C14.695 70.008 13.985 70.293 13.155 70.293C12.465 70.293 11.765 70.053 11.055 69.573C10.665 69.313 10.065 68.838 9.255 68.148L7.41 66.588L7.41 70.323ZM7.41 81.2484L6 81.2484L6 74.5284L10.2 77.9934C10.83 78.5134 11.35 78.9134 11.76 79.1934C12.28 79.5434 12.76 79.7184 13.2 79.7184C13.65 79.7184 14.03 79.5734 14.34 79.2834C14.66 78.9934 14.82 78.5834 14.82 78.0534C14.82 77.5234 14.645 77.1034 14.295 76.7934C13.945 76.4834 13.515 76.3134 13.005 76.2834L13.005 74.8134C13.885 74.8534 14.615 75.1334 15.195 75.6534C15.845 76.2334 16.17 77.0134 16.17 77.9934C16.17 79.0034 15.875 79.7934 15.285 80.3634C14.695 80.9334 13.985 81.2184 13.155 81.2184C12.465 81.2184 11.765 80.9784 11.055 80.4984C10.665 80.2384 10.065 79.7634 9.255 79.0734L7.41 77.5134L7.41 81.2484Z" fill="white" fill-opacity="0.5"/>
<line x1="10.5" y1="0.242187" x2="10.5" y2="31.2422" stroke="#A6A6B8"/>
</svg>
