<svg width="17" height="17" viewBox="0 0 17 17" fill="none" xmlns="http://www.w3.org/2000/svg">
<path d="M9.59871 8.23852L9.37285 8.5L9.59871 8.76148L16.3697 16.6H14.6426C14.6262 16.6 14.6178 16.593 14.616 16.5909L14.6151 16.5899L8.80272 9.86032L8.5 9.50983L8.19728 9.86032L2.38752 16.5869C2.37984 16.595 2.36823 16.6 2.35739 16.6H0.630275L7.40129 8.76148L7.62715 8.5L7.40129 8.23852L0.630273 0.4H2.35739C2.37382 0.4 2.38223 0.406981 2.38404 0.409096L2.38404 0.409097L2.38489 0.410079L8.19728 7.13968L8.5 7.49017L8.80272 7.13968L14.6125 0.413123C14.6202 0.404993 14.6318 0.4 14.6426 0.4H16.3697L9.59871 8.23852ZM0.212863 16.6C0.213572 16.6 0.214282 16.6 0.214992 16.6L0.212863 16.6Z" fill="white" stroke="#090909" stroke-width="0.8"/>
</svg>
