<svg width="157" height="157" viewBox="0 0 157 157" fill="none" xmlns="http://www.w3.org/2000/svg">
<path d="M156.951 80.4061L154.398 80.2779L156.827 82.8821L156.762 84.168L154.009 81.1339L150.36 83.8658L150.426 82.5607L153.381 80.4193L153.199 80.2177L150.55 80.0847L150.599 79.1059L157 79.4272L156.951 80.4061Z" fill="white"/>
<path d="M155.634 87.7785C156.158 88.5065 156.343 89.3415 156.189 90.2835C156.036 91.2255 155.595 91.9584 154.867 92.4822C154.139 93.0061 153.307 93.1917 152.371 93.039C151.436 92.8864 150.706 92.4461 150.182 91.7181C149.659 90.9901 149.474 90.1551 149.627 89.2131C149.781 88.271 150.222 87.5381 150.95 87.0143C151.677 86.4905 152.509 86.3049 153.445 86.4575C154.381 86.6101 155.11 87.0505 155.634 87.7785ZM151.455 87.7977C150.941 88.1617 150.629 88.682 150.519 89.3585C150.408 90.035 150.539 90.6274 150.91 91.1358C151.288 91.6453 151.828 91.9573 152.529 92.0717C153.231 92.1862 153.839 92.0614 154.352 91.6973C154.872 91.3343 155.188 90.8146 155.298 90.1381C155.408 89.4616 155.275 88.8686 154.897 88.3592C154.525 87.8507 153.989 87.5393 153.287 87.4248C152.585 87.3104 151.975 87.4346 151.455 87.7977Z" fill="white"/>
<path d="M154.593 97.8481L153.447 101.778L147.295 99.9847L147.569 99.0438L152.836 100.579L153.433 98.531L150.37 97.6384C150.075 97.5524 149.838 97.4732 149.659 97.401C149.486 97.3306 149.3 97.213 149.101 97.0483C148.901 96.8897 148.753 96.6998 148.657 96.4784C148.499 96.1053 148.484 95.6974 148.613 95.2546C148.651 95.1255 148.71 94.9925 148.79 94.8556L149.657 95.1084C149.584 95.2206 149.532 95.329 149.502 95.4335C149.436 95.6611 149.452 95.8662 149.553 96.0489C149.616 96.1742 149.734 96.2852 149.906 96.382C150.082 96.4868 150.231 96.5602 150.352 96.6022C150.473 96.6442 150.663 96.7028 150.921 96.7781L154.593 97.8481Z" fill="white"/>
<path d="M146.295 103.071L152.234 105.479L151.866 106.387L149.471 105.416L149.197 106.093C148.939 106.728 148.581 107.16 148.122 107.389C147.644 107.63 147.132 107.64 146.585 107.419C146.301 107.303 146.054 107.127 145.846 106.891C145.641 106.663 145.507 106.397 145.443 106.095C145.359 105.688 145.428 105.211 145.649 104.665L146.295 103.071ZM148.616 105.07L146.782 104.326L146.522 104.967C146.2 105.762 146.338 106.282 146.938 106.525C147.199 106.631 147.454 106.631 147.705 106.525C147.959 106.427 148.173 106.162 148.349 105.728L148.616 105.07Z" fill="white"/>
<path d="M143.707 109.352L149.364 112.365L148.903 113.23L144.06 110.651L142.814 112.992L147.656 115.571L147.196 116.436L142.353 113.857L141.965 114.586L139.879 113.475L140.312 112.661L141.584 113.339L143.707 109.352Z" fill="white"/>
<path d="M137.393 120.021L139.049 120.339L140.595 118.078L139.713 116.626L140.31 115.754L144.109 122.216L136.796 120.894L137.393 120.021ZM141.128 118.932L140.033 120.534L142.362 120.975L141.128 118.932Z" fill="white"/>
<path d="M102.103 153.012L101.73 151.92C102.38 152.199 103.006 152.236 103.606 152.032C104.26 151.808 104.719 151.408 104.983 150.831C105.242 150.261 105.257 149.64 105.027 148.968C104.806 148.319 104.411 147.848 103.844 147.554C103.279 147.266 102.675 147.232 102.033 147.451C101.432 147.656 100.966 148.076 100.635 148.71L100.259 147.61C100.665 147.133 101.168 146.792 101.768 146.587C102.611 146.3 103.421 146.334 104.2 146.691C105.055 147.076 105.64 147.729 105.955 148.651C106.286 149.621 106.231 150.523 105.792 151.357C105.414 152.074 104.773 152.587 103.87 152.896C103.246 153.109 102.657 153.147 102.103 153.012Z" fill="white"/>
<path d="M95.6652 155.096L95.4511 154.198L97.937 153.605L97.5602 152.026L95.149 152.601L94.9349 151.704L97.3461 151.128L96.8777 149.166L94.3918 149.759L94.1777 148.862L97.6169 148.041L99.1044 154.275L95.6652 155.096Z" fill="white"/>
<path d="M92.5931 155.741L91.1966 155.953C90.614 156.041 90.1344 155.997 89.7579 155.821C89.4787 155.688 89.2515 155.492 89.0763 155.234C88.8958 154.982 88.7825 154.705 88.7365 154.401C88.6503 153.831 88.7861 153.337 89.1441 152.92C89.4806 152.532 89.9719 152.29 90.6179 152.192L91.0548 152.126L90.6653 149.551L91.6343 149.404L92.5931 155.741ZM91.489 154.995L91.19 153.019L90.753 153.085C90.3477 153.146 90.0539 153.281 89.8717 153.49C89.6905 153.706 89.6229 153.965 89.6689 154.269C89.6852 154.377 89.7164 154.476 89.7624 154.566C89.8021 154.657 89.8713 154.751 89.9699 154.846C90.0632 154.948 90.2033 155.018 90.3902 155.054C90.5781 155.097 90.8018 155.099 91.0615 155.06L91.489 154.995Z" fill="white"/>
<path d="M85.57 150.267L85.9654 156.664L84.9872 156.724L84.8278 154.144L84.099 154.189C83.4149 154.232 82.8706 154.095 82.4661 153.78C82.0415 153.453 81.8111 152.996 81.7748 152.408C81.7558 152.101 81.8079 151.802 81.9312 151.512C82.0485 151.229 82.2296 150.993 82.4747 150.805C82.8057 150.553 83.2653 150.409 83.8535 150.373L85.57 150.267ZM84.7709 153.224L84.6488 151.248L83.9583 151.291C83.1016 151.344 82.6932 151.693 82.7331 152.339C82.7505 152.62 82.8611 152.851 83.0647 153.031C83.2624 153.217 83.5945 153.296 84.0612 153.268L84.7709 153.224Z" fill="white"/>
<path d="M78.5185 150.593L78.3454 157L75.1375 156.913L75.1624 155.991L77.3907 156.051L77.5389 150.567L78.5185 150.593Z" fill="white"/>
<path d="M68.7685 149.922L68.2378 154.203L73.0947 150.167L72.271 156.814L71.2984 156.693L71.8314 152.393L66.9745 156.428L67.7959 149.801L68.7685 149.922Z" fill="white"/>
<path d="M30.3721 132.224L25.9236 136.838L23.6136 134.61L24.2539 133.946L25.8584 135.493L27.0122 134.297L26.5558 133.857C26.0624 133.381 25.7952 132.887 25.7542 132.376C25.7083 131.842 25.8898 131.363 26.2989 130.939C26.5123 130.718 26.7676 130.555 27.0646 130.45C27.3527 130.345 27.6489 130.319 27.9534 130.372C28.3624 130.446 28.7791 130.688 29.2033 131.097L30.3721 132.224ZM27.6525 133.633L29.0264 132.208L28.5976 131.794C27.9797 131.199 27.4463 131.133 26.9972 131.599C26.8016 131.802 26.7062 132.039 26.7111 132.311C26.707 132.583 26.8733 132.881 27.2099 133.206L27.6525 133.633Z" fill="white"/>
<path d="M20.7584 131.714L19.8309 130.649C19.444 130.205 19.2239 129.776 19.1707 129.364C19.1329 129.057 19.1761 128.76 19.3004 128.474C19.4156 128.187 19.5891 127.942 19.821 127.74C20.2558 127.362 20.7452 127.212 21.2891 127.29C21.7969 127.366 22.2653 127.65 22.6943 128.143L22.9845 128.477L24.9483 126.767L25.5918 127.506L20.7584 131.714ZM20.796 130.382L22.3033 129.07L22.0131 128.736C21.7439 128.427 21.4723 128.252 21.1982 128.21C20.9193 128.173 20.6639 128.255 20.432 128.457C20.3499 128.528 20.2831 128.608 20.2317 128.695C20.1761 128.777 20.1345 128.886 20.1071 129.02C20.0706 129.154 20.0871 129.309 20.1565 129.487C20.2211 129.668 20.3397 129.858 20.5121 130.056L20.796 130.382Z" fill="white"/>
<path d="M19.0316 119.263L18.1604 120.708L19.7469 122.94L21.4141 122.615L22.0264 123.477L14.6494 124.807L18.4193 118.402L19.0316 119.263ZM18.7613 123.145L17.6368 121.563L16.418 123.597L18.7613 123.145Z" fill="white"/>
<path d="M9.44537 115.155L10.4508 114.591C10.2945 115.281 10.3716 115.903 10.682 116.456C11.0206 117.059 11.4976 117.438 12.1129 117.592C12.7196 117.744 13.3329 117.645 13.9529 117.297C14.5506 116.962 14.9423 116.488 15.1282 115.877C15.3084 115.269 15.2324 114.669 14.9 114.077C14.5897 113.524 14.0924 113.142 13.4084 112.931L14.4222 112.362C14.9648 112.674 15.3913 113.107 15.7017 113.66C16.1375 114.436 16.2505 115.24 16.0408 116.07C15.8177 116.981 15.2816 117.675 14.4326 118.152C13.5389 118.654 12.6422 118.764 11.7426 118.483C10.9682 118.242 10.3475 117.705 9.88031 116.873C9.55738 116.297 9.4124 115.725 9.44537 115.155Z" fill="white"/>
<path d="M6.26168 109.273L7.10435 108.898L8.14368 111.233L9.62711 110.573L8.61905 108.308L9.46171 107.933L10.4698 110.197L12.3131 109.377L11.2738 107.042L12.1164 106.667L13.5543 109.897L7.69955 112.503L6.26168 109.273Z" fill="white"/>
<path d="M4.77719 105.643L3.49903 101.754L9.58714 99.7527L9.89318 100.684L4.68132 102.397L5.3474 104.424L8.37777 103.427C8.66985 103.331 8.91017 103.262 9.09872 103.221C9.28119 103.181 9.501 103.173 9.75815 103.196C10.0133 103.213 10.2429 103.286 10.4469 103.415C10.7884 103.633 11.0311 103.961 11.1751 104.399C11.2171 104.527 11.2439 104.67 11.2554 104.828L10.3974 105.11C10.3939 104.976 10.3751 104.858 10.3411 104.754C10.2671 104.529 10.1371 104.37 9.95115 104.276C9.82787 104.208 9.66795 104.183 9.4714 104.201C9.26676 104.214 9.10259 104.238 8.97889 104.272C8.85519 104.305 8.66555 104.364 8.40998 104.448L4.77719 105.643Z" fill="white"/>
<path d="M1.63839 94.5323L2.53874 94.3319L3.094 96.8268L4.67898 96.474L4.14042 94.0541L5.04076 93.8537L5.57933 96.2735L7.54883 95.8351L6.99356 93.3403L7.89391 93.1398L8.6621 96.5914L2.40658 97.9839L1.63839 94.5323Z" fill="white"/>
<path d="M1.51881 88.1736L1.72202 89.6296L7.15557 88.8712L7.29104 89.8419L1.85749 90.6003L2.0607 92.0563L1.14718 92.1838L0.60529 88.3011L1.51881 88.1736Z" fill="white"/>
<path d="M6.63932 85.3161L0.236494 85.5881L0.194904 84.6089L2.77715 84.4992L2.74616 83.7696C2.71708 83.0848 2.86397 82.5432 3.18684 82.1448C3.52169 81.7266 3.9835 81.505 4.57227 81.48C4.87945 81.467 5.17682 81.5249 5.46439 81.6537C5.74528 81.7764 5.97756 81.9621 6.16122 82.2108C6.40628 82.5466 6.54132 83.0089 6.56633 83.5977L6.63932 85.3161ZM3.6987 84.4601L5.67618 84.3761L5.64682 83.6849C5.6104 82.8272 5.269 82.4122 4.62264 82.4396C4.34106 82.4516 4.10835 82.5576 3.92452 82.7578C3.73401 82.9518 3.64868 83.2824 3.66852 83.7497L3.6987 84.4601ZM0.0415904 80.9993L0 80.02L6.40282 79.7481L6.44441 80.7273L0.0415904 80.9993Z" fill="white"/>
<path d="M17.5582 39.8332L12.3212 36.1393L12.886 35.3383L17.3693 38.5007L18.8977 36.3334L14.4144 33.1711L14.9793 32.3702L19.4626 35.5325L19.9388 34.8572L21.8703 36.2196L21.3387 36.9734L20.161 36.1427L17.5582 39.8332Z" fill="white"/>
<path d="M19.7958 26.3889L20.4937 26.9921L18.8225 28.9259L20.051 29.9877L21.6719 28.1121L22.3698 28.7152L20.7489 30.5909L22.2755 31.9103L23.9466 29.9765L24.6445 30.5797L22.3325 33.255L17.4838 29.0642L19.7958 26.3889Z" fill="white"/>
<path d="M21.6467 24.27L25.0475 21.0141L29.4792 25.6437L28.7713 26.3215L24.9774 22.3582L22.9925 24.2586L26.7863 28.2219L26.0784 28.8996L21.6467 24.27Z" fill="white"/>
<path d="M35.5152 20.6332L32.9143 17.1912L32.2396 23.4702L28.202 18.127L28.9839 17.5361L31.5964 20.9934L32.2711 14.7145L36.2971 20.0423L35.5152 20.6332Z" fill="white"/>
<path d="M75.5843 0L80.2921 0.0363495L80.2426 6.44523L79.2626 6.43766L79.305 0.9512L76.5571 0.929984L76.5148 6.41644L75.5348 6.40888L75.5843 0Z" fill="white"/>
<path d="M85.0417 1.0616C85.7511 0.512963 86.5792 0.299166 87.5258 0.420209C88.4725 0.541251 89.2202 0.956515 89.7688 1.666C90.3174 2.37548 90.5316 3.20043 90.4114 4.14085C90.2911 5.08126 89.8763 5.82579 89.1669 6.37442C88.4575 6.92306 87.6294 7.13686 86.6827 7.01581C85.736 6.89477 84.9883 6.47951 84.4397 5.77002C83.8911 5.06054 83.677 4.23559 83.7972 3.29517C83.9174 2.35476 84.3322 1.61024 85.0417 1.0616ZM85.2051 5.23823C85.5867 5.73907 86.1174 6.03295 86.7972 6.11988C87.4771 6.2068 88.0646 6.05589 88.5599 5.66716C89.056 5.27207 89.3491 4.72187 89.4392 4.01655C89.5294 3.31124 89.3837 2.70817 89.0022 2.20732C88.6215 1.70013 88.0912 1.40307 87.4113 1.31614C86.7315 1.22922 86.1435 1.3833 85.6474 1.7784C85.1522 2.16713 84.8595 2.71416 84.7693 3.41947C84.6791 4.12478 84.8244 4.73103 85.2051 5.23823Z" fill="white"/>
<path d="M94.831 1.67922L98.7079 2.65131L97.3737 7.97322L98.082 8.15082L97.5072 10.4436L96.6125 10.2193L96.963 8.82124L92.9556 7.81643L92.6051 9.21449L91.7104 8.99016L92.2852 6.69735C92.4949 6.75654 92.7062 6.73027 92.9191 6.61855C93.1336 6.50061 93.3217 6.32984 93.4834 6.10622C93.7275 5.76458 93.9384 5.23959 94.116 4.53124L94.831 1.67922ZM95.5573 2.81232L95.0666 4.76959C94.8718 5.54629 94.6555 6.10623 94.4176 6.44943C94.2341 6.70721 94.0111 6.91214 93.7484 7.06423L96.4231 7.73487L97.533 3.30771L95.5573 2.81232Z" fill="white"/>
<path d="M102.483 3.70967L103.396 4.04035C103.805 4.18878 104.125 4.34195 104.353 4.49987C104.582 4.65779 104.76 4.86202 104.888 5.11254C105.098 5.52935 105.113 5.98468 104.934 6.47853C104.832 6.76158 104.685 6.97765 104.495 7.12671C104.319 7.27412 104.118 7.35807 103.893 7.37856C104.177 7.57036 104.384 7.80876 104.512 8.09376C104.677 8.46683 104.673 8.89126 104.501 9.36704C104.341 9.80669 104.078 10.12 103.71 10.307C103.195 10.5632 102.561 10.5548 101.808 10.282L100.3 9.73521L102.483 3.70967ZM103.091 4.91087L102.465 6.63632L102.745 6.73782C103.083 6.86005 103.361 6.87234 103.58 6.77469C103.791 6.68088 103.952 6.4804 104.064 6.17325C104.153 5.92632 104.151 5.70741 104.057 5.51651C103.955 5.30919 103.738 5.14551 103.407 5.02546L103.091 4.91087ZM102.19 7.39516L101.535 9.20192L102.096 9.40491C102.511 9.55552 102.844 9.58746 103.093 9.50072C103.348 9.41616 103.529 9.22934 103.633 8.94026C103.727 8.68129 103.722 8.44104 103.619 8.21949C103.497 7.97116 103.214 7.76622 102.768 7.6047L102.19 7.39516Z" fill="white"/>
<path d="M112.53 7.77437L112.139 8.60997L109.824 7.52729L109.136 8.99829L111.382 10.0484L110.991 10.884L108.745 9.83389L107.891 11.6618L110.206 12.7444L109.815 13.58L106.612 12.0822L109.327 6.27653L112.53 7.77437Z" fill="white"/>
<path d="M119.591 12.0321L119.005 13.0249C118.794 12.3496 118.415 11.8506 117.869 11.5281C117.274 11.1762 116.671 11.088 116.061 11.2636C115.461 11.4369 114.979 11.8296 114.618 12.4418C114.269 13.032 114.168 13.638 114.314 14.2599C114.463 14.8764 114.83 15.3572 115.415 15.7026C115.96 16.0252 116.582 16.1061 117.28 15.9453L116.689 16.9463C116.062 16.9484 115.476 16.7882 114.93 16.4656C114.164 16.0127 113.663 15.3746 113.428 14.5511C113.163 13.6509 113.279 12.7817 113.774 11.9433C114.295 11.0609 115.015 10.5154 115.935 10.307C116.725 10.1269 117.532 10.2796 118.353 10.7651C118.921 11.1007 119.334 11.523 119.591 12.0321Z" fill="white"/>
<path d="M122.98 13.8175L121.469 15.8789L124.98 15.2831L126.018 16.0443L121.97 16.6748L122.245 21.2247L121.191 20.4522L121.028 16.8062L120.759 16.8476L119.191 18.9865L118.401 18.4071L122.19 13.238L122.98 13.8175Z" fill="white"/>
<path d="M127.776 25.9366L130.702 22.7664L124.403 23.2155L128.946 18.2943L129.666 18.9591L126.727 22.1434L133.025 21.6943L128.496 26.6014L127.776 25.9366Z" fill="white"/>
<path d="M54.4571 7.06886C54.4571 7.77643 53.8835 8.35003 53.176 8.35003C52.4685 8.35003 51.8949 7.77643 51.8949 7.06886C51.8949 6.36129 52.4685 5.78769 53.176 5.78769C53.8835 5.78769 54.4571 6.36129 54.4571 7.06886Z" fill="white"/>
<path d="M7.0572 60.8781C7.0572 61.5857 6.48364 62.1593 5.77612 62.1593C5.0686 62.1593 4.49505 61.5857 4.49505 60.8781C4.49505 60.1706 5.0686 59.597 5.77612 59.597C6.48364 59.597 7.0572 60.1706 7.0572 60.8781Z" fill="white"/>
<path d="M147.976 49.3476C147.976 50.0551 147.402 50.6287 146.695 50.6287C145.987 50.6287 145.414 50.0551 145.414 49.3476C145.414 48.64 145.987 48.0664 146.695 48.0664C147.402 48.0664 147.976 48.64 147.976 49.3476Z" fill="white"/>
<path d="M125.557 137.749C125.557 138.456 124.983 139.03 124.276 139.03C123.568 139.03 122.995 138.456 122.995 137.749C122.995 137.041 123.568 136.467 124.276 136.467C124.983 136.467 125.557 137.041 125.557 137.749Z" fill="white"/>
<path d="M46.7706 146.076C46.7706 146.784 46.1971 147.357 45.4896 147.357C44.782 147.357 44.2085 146.784 44.2085 146.076C44.2085 145.369 44.782 144.795 45.4896 144.795C46.1971 144.795 46.7706 145.369 46.7706 146.076Z" fill="white"/>
<path fill-rule="evenodd" clip-rule="evenodd" d="M103.161 88.7509L97.8362 84.8641H107.37L103.161 88.7509ZM90.9487 89.0375H101.71L101.396 88.78C101.373 88.7612 101.356 88.7467 101.337 88.7332L100.55 88.1584C99.2527 87.2108 97.9551 86.2635 96.6595 85.3125C96.5074 85.2004 96.3525 85.2693 96.2656 85.3293C95.1466 86.1116 94.0268 86.8922 92.9071 87.6733L90.9487 89.0375ZM84.0266 84.8594H95.0868L89.4596 88.7837L84.0266 84.8594ZM87.6581 89.0436L87.7335 88.8425L82.6845 85.1962L77.8987 89.0436H87.6581ZM76.5056 88.69C75.0701 87.4865 73.65 86.2947 72.1974 85.0758L71.9415 84.8608H81.4208L76.5798 88.7522L76.5056 88.69ZM65.9677 89.0403H75.2857L70.7241 85.2139L65.9677 89.0403ZM59.7443 84.8617H69.4805L64.6384 88.7576L59.7443 84.8617ZM54.9226 89.0426H63.3016L58.5307 85.2439L54.9226 89.0426ZM53.8039 88.7026L49.5382 84.8654H57.4483L53.8039 88.7026ZM64.9526 74.1101L65.0195 74.1712C65.0291 74.1796 65.0372 74.1875 65.0454 74.1959L65.111 74.264L65.0415 74.3789C65.0246 74.4079 65.0073 74.4373 64.9877 74.464L64.2925 75.42C62.3018 78.1589 60.3108 80.8972 58.3213 83.637C58.2546 83.7281 58.1623 83.8213 57.984 83.8213C56.2158 83.8184 54.4474 83.8186 52.679 83.8181L50.5307 83.8179C50.5049 83.8179 50.4774 83.8153 50.437 83.8116L50.0052 83.7762L64.9526 74.1101ZM70.159 83.8054L66.6977 73.902L59.4954 83.8054H70.159ZM80.1849 83.7792C80.1849 83.7792 73.3372 83.8186 71.5236 83.8199C71.3988 83.8199 71.2628 83.7934 71.1947 83.5948C70.3149 81.0694 67.73 73.5836 67.73 73.5836L80.1849 83.7792ZM84.7389 69.3372L73.5274 76.9667L79.8203 82.1177L84.9229 69.4583L84.7389 69.3372ZM85.9775 69.6538C85.9856 69.6328 85.9951 69.6127 86.0073 69.5853L86.1214 69.3271L95.774 83.8184H89.9628C87.3641 83.8184 84.7654 83.819 82.1665 83.8213C81.971 83.8211 81.8206 83.7661 81.6786 83.6439C81.4423 83.4376 81.1844 83.227 80.8674 82.979C80.7729 82.9049 80.6756 82.7938 80.7597 82.5867C81.584 80.5506 85.9775 69.6538 85.9775 69.6538ZM107.007 83.6118L87.525 69.4149L87.5719 69.7038C87.5868 69.7943 87.6248 69.859 87.6608 69.9143C87.6608 69.9143 94.2767 79.7251 96.9005 83.622C96.9942 83.761 97.1083 83.8208 97.2855 83.8208C99.7301 83.8186 106.929 83.8184 106.929 83.8184L107.007 83.6118ZM109.594 84.1899C109.591 84.1529 109.54 84.0974 109.438 84.0246C105.198 80.9976 89.5418 69.7959 86.0515 67.2958C85.9775 67.2424 85.9286 67.2473 85.8383 67.309L82.0134 69.9119C78.9678 71.9843 75.9222 74.057 72.8775 76.1306C72.8295 76.163 72.7644 76.2006 72.6858 76.2006C72.5962 76.2006 72.5252 76.151 72.4806 76.114C71.2074 75.0686 69.9329 74.025 68.6578 72.9817L67.1066 71.7108C67.0175 71.6379 66.9592 71.5953 66.9248 71.5953C66.8896 71.5952 66.8273 71.6311 66.7382 71.6886C66.7382 71.6886 52.6527 80.8022 47.5828 84.077C47.3933 84.1996 47.3514 84.255 47.3496 84.2786C47.3477 84.2997 47.3733 84.3591 47.5588 84.5213C49.6158 86.3218 51.6606 88.1222 53.6358 89.8719C53.8136 90.0294 53.9796 90.0938 54.2097 90.0938C61.3242 90.0877 68.4385 90.0874 75.5525 90.0874L78.6849 90.0914H83.3849C89.9437 90.0914 96.5033 90.0914 103.061 90.0956C103.199 90.0956 103.294 90.0577 103.4 89.9604C105.365 88.1429 107.396 86.2641 109.46 84.3777C109.584 84.2647 109.595 84.2085 109.594 84.1899Z" fill="white"/>
</svg>
