<svg width="169" height="80" viewBox="0 0 169 80" fill="none" xmlns="http://www.w3.org/2000/svg">
<path d="M165.264 79.3433C165.507 79.4737 165.81 79.3822 165.941 79.1388L168.067 75.1727C168.197 74.9293 168.106 74.6263 167.862 74.4958C167.619 74.3654 167.316 74.4569 167.185 74.7003L165.296 78.2257L161.77 76.3359C161.527 76.2054 161.224 76.297 161.093 76.5403C160.963 76.7837 161.054 77.0868 161.298 77.2172L165.264 79.3433ZM1.20998 15.8564C22.3989 6.05133 56.0155 -2.53916 87.9944 3.51887C103.975 6.54625 119.541 13.2301 132.952 25.2438C146.363 37.2571 157.644 54.6215 165.021 79.0472L165.979 78.758C158.556 54.1838 147.187 36.6523 133.62 24.4989C120.053 12.3459 104.312 5.5923 88.1806 2.53634C55.9345 -3.57229 22.1011 5.08722 0.79002 14.9488L1.20998 15.8564Z" fill="white" fill-opacity="0.5"/>
</svg>
