<svg width="85" height="48" viewBox="0 0 85 48" fill="none" xmlns="http://www.w3.org/2000/svg">
<path d="M81.7435 47.4292C81.9805 47.5709 82.2875 47.4935 82.4292 47.2565L84.7376 43.3937C84.8793 43.1567 84.802 42.8497 84.5649 42.708C84.3279 42.5664 84.0209 42.6437 83.8792 42.8807L81.8273 46.3143L78.3937 44.2624C78.1567 44.1207 77.8497 44.198 77.708 44.4351C77.5664 44.6721 77.6437 44.9791 77.8807 45.1208L81.7435 47.4292ZM1.24261 9.94166C11.6417 4.17101 28.1197 -0.870747 43.7712 2.68484C59.3651 6.22733 74.2642 18.3337 81.5151 47.1221L82.4849 46.8779C75.1608 17.7992 60.0233 5.35137 43.9928 1.70969C28.0198 -1.91891 11.2853 3.22513 0.757392 9.06727L1.24261 9.94166Z" fill="white" fill-opacity="0.5"/>
</svg>
