<svg width="24" height="24" viewBox="0 0 24 24" fill="none" xmlns="http://www.w3.org/2000/svg">
<path d="M8.45281 2.25H4.32031C4.02518 2.27274 3.73743 2.35349 3.47357 2.48763C3.2097 2.62177 2.97489 2.80665 2.7826 3.03169C2.5903 3.25673 2.4443 3.5175 2.35296 3.79906C2.26162 4.08062 2.22674 4.37744 2.25031 4.6725L8.45281 2.25ZM8.45281 2.25C8.75323 2.24971 9.04681 2.33963 9.29553 2.50812C9.54425 2.67661 9.73665 2.9159 9.84781 3.195L8.45281 2.25ZM3.5642 2.66592C3.80238 2.54484 4.06191 2.4715 4.32818 2.45L8.45281 2.45L8.453 2.45C8.71336 2.44975 8.9678 2.52768 9.18336 2.67371C9.39892 2.81973 9.56567 3.02712 9.662 3.269L9.662 3.269L9.66253 3.2703L10.8023 6.07469C10.8023 6.07481 10.8024 6.07493 10.8024 6.07505C10.8974 6.31126 10.921 6.57017 10.8702 6.81965C10.8193 7.06926 10.6963 7.29843 10.5163 7.47869L10.5157 7.47924L8.91823 9.09174L8.8454 9.16525L8.86333 9.26716C9.11997 10.7256 9.8184 12.07 10.8641 13.1185C11.9098 14.1669 13.2524 14.8689 14.7101 15.1294L14.8123 15.1476L14.8861 15.0746L16.5123 13.4634C16.5125 13.4631 16.5127 13.4629 16.5129 13.4627C16.6958 13.2851 16.9269 13.1651 17.1774 13.1178C17.4282 13.0704 17.6875 13.0979 17.9228 13.1969L17.9228 13.1969L17.9259 13.1982L20.7508 14.3296C20.7512 14.3298 20.7516 14.3299 20.7521 14.3301C20.9898 14.4295 21.1926 14.5974 21.3347 14.8123C21.4771 15.0276 21.5521 15.2805 21.5503 15.5386V15.54V19.5C21.5503 20.0437 21.3343 20.5651 20.9499 20.9496C20.5654 21.334 20.044 21.55 19.5003 21.55H19.3786C12.0794 21.1287 7.93025 17.8444 5.56229 14.2074C3.18671 10.5588 2.59482 6.53977 2.44972 4.65713L2.44967 4.65658C2.4282 4.38774 2.45998 4.11731 2.5432 3.86077C2.62642 3.60424 2.75945 3.36665 2.93465 3.16161C3.10985 2.95658 3.32378 2.78813 3.5642 2.66592ZM3.55031 4.56V4.56776L3.55091 4.57549C3.72466 6.81159 4.36887 10.5866 6.6368 13.9017C8.91173 17.2269 12.8086 20.071 19.4434 20.4496C19.5681 20.4573 19.693 20.4403 19.8111 20.3996C19.9293 20.3589 20.0383 20.2952 20.1319 20.2122C20.2254 20.1292 20.3017 20.0286 20.3563 19.9161C20.4109 19.8036 20.4427 19.6815 20.45 19.5566L20.4503 19.5566V19.545V15.54V15.4047L20.3247 15.3543L17.4972 14.2218L17.3752 14.173L17.2819 14.2656L15.1985 16.3345L14.9352 16.3016C14.9352 16.3015 14.9351 16.3015 14.9351 16.3015C11.7477 15.9022 9.94352 14.1136 8.93029 12.4115C8.42253 11.5585 8.114 10.7274 7.93254 10.1053C7.84189 9.79452 7.78318 9.53667 7.74727 9.35538C7.72931 9.26473 7.71709 9.19345 7.70944 9.1445C7.70561 9.11997 7.70298 9.10137 7.70136 9.08898C7.70089 9.08535 7.70055 9.08259 7.70031 9.08057V9.07755L7.69876 9.06519L7.66581 8.80161L9.72747 6.71818L9.81952 6.62516L9.77114 6.50356L8.64614 3.67606L8.59598 3.55H8.46031H4.50031C4.24835 3.55 4.00672 3.65009 3.82856 3.82825C3.6504 4.00641 3.55031 4.24804 3.55031 4.5V4.56Z" fill="white" stroke="black" stroke-width="0.4"/>
</svg>
