<svg width="53" height="54" viewBox="0 0 53 54" fill="none" xmlns="http://www.w3.org/2000/svg">
<circle cx="26.5" cy="26.7422" r="25.9" stroke="white" stroke-opacity="0.5" stroke-width="1.2"/>
<path d="M26.5002 24.0088C24.9949 24.0088 23.7665 25.2372 23.7665 26.7425C23.7665 28.2478 24.9949 29.4762 26.5002 29.4762C28.0055 29.4762 29.2339 28.2478 29.2339 26.7425C29.2339 25.2372 28.0055 24.0088 26.5002 24.0088ZM34.6992 26.7425C34.6992 25.6105 34.7095 24.4887 34.6459 23.3587C34.5823 22.0462 34.2829 20.8814 33.3232 19.9216C32.3614 18.9598 31.1986 18.6624 29.8861 18.5989C28.754 18.5353 27.6323 18.5455 26.5023 18.5455C25.3702 18.5455 24.2485 18.5353 23.1185 18.5989C21.806 18.6624 20.6411 18.9618 19.6814 19.9216C18.7196 20.8834 18.4222 22.0462 18.3586 23.3587C18.295 24.4907 18.3053 25.6125 18.3053 26.7425C18.3053 27.8725 18.295 28.9963 18.3586 30.1263C18.4222 31.4388 18.7216 32.6036 19.6814 33.5634C20.6432 34.5252 21.806 34.8226 23.1185 34.8862C24.2505 34.9497 25.3723 34.9395 26.5023 34.9395C27.6343 34.9395 28.7561 34.9497 29.8861 34.8862C31.1986 34.8226 32.3634 34.5232 33.3232 33.5634C34.285 32.6016 34.5823 31.4388 34.6459 30.1263C34.7115 28.9963 34.6992 27.8745 34.6992 26.7425ZM26.5002 30.9487C24.1726 30.9487 22.2941 29.0701 22.2941 26.7425C22.2941 24.4149 24.1726 22.5364 26.5002 22.5364C28.8279 22.5364 30.7064 24.4149 30.7064 26.7425C30.7064 29.0701 28.8279 30.9487 26.5002 30.9487ZM30.8786 23.3464C30.3352 23.3464 29.8963 22.9075 29.8963 22.3641C29.8963 21.8206 30.3352 21.3818 30.8786 21.3818C31.4221 21.3818 31.861 21.8206 31.861 22.3641C31.8611 22.4931 31.8358 22.6209 31.7865 22.7402C31.7372 22.8595 31.6649 22.9678 31.5736 23.0591C31.4824 23.1503 31.374 23.2227 31.2548 23.272C31.1355 23.3213 31.0077 23.3466 30.8786 23.3464Z" fill="white"/>
</svg>
