<svg width="194" height="109" viewBox="0 0 194 109" fill="none" xmlns="http://www.w3.org/2000/svg">
<path fill-rule="evenodd" clip-rule="evenodd" d="M136.961 40.273L128.647 34.2055H143.531L136.961 40.273ZM117.895 40.7205H134.695L134.204 40.3185C134.168 40.2891 134.142 40.2665 134.113 40.2454L132.885 39.3481C130.859 37.8689 128.833 36.39 126.81 34.9055C126.573 34.7304 126.331 34.8381 126.195 34.9316C124.448 36.1529 122.7 37.3715 120.952 38.5909L117.895 40.7205ZM107.088 34.1981H124.355L115.57 40.3243L107.088 34.1981ZM112.757 40.7299L112.875 40.4161L104.993 34.7239L97.5211 40.7299H112.757ZM95.3463 40.1779C93.1051 38.2993 90.8881 36.4388 88.6203 34.5359L88.2208 34.2003H103.02L95.462 40.275L95.3463 40.1779ZM78.8946 40.7248H93.4418L86.3202 34.7515L78.8946 40.7248ZM69.1787 34.2017H84.3787L76.8194 40.2836L69.1787 34.2017ZM61.6511 40.7284H74.7324L67.2841 34.7983L61.6511 40.7284ZM59.9047 40.1976L53.2451 34.2076H65.5942L59.9047 40.1976ZM77.3099 17.4177L77.4142 17.5132C77.4293 17.5262 77.442 17.5385 77.4547 17.5517L77.5571 17.658L77.4486 17.8374C77.4223 17.8826 77.3952 17.9285 77.3647 17.9702L76.2793 19.4626C73.1714 23.7382 70.0631 28.0128 66.9572 32.2898C66.853 32.4322 66.7089 32.5776 66.4305 32.5776C63.6701 32.5731 60.9093 32.5733 58.1485 32.5726L54.7947 32.5722C54.7543 32.5722 54.7114 32.5683 54.6484 32.5625L53.9741 32.5072L77.3099 17.4177ZM85.438 32.5528L80.0343 17.0929L68.7901 32.5528H85.438ZM101.09 32.5119C101.09 32.5119 90.3998 32.5733 87.5684 32.5754C87.3736 32.5754 87.1613 32.5341 87.055 32.2241C85.6814 28.2817 81.6459 16.5958 81.6459 16.5958L101.09 32.5119ZM108.2 9.96694L90.6966 21.8771L100.521 29.9181L108.487 10.1559L108.2 9.96694ZM110.134 10.4612C110.146 10.4284 110.161 10.397 110.18 10.3542L110.358 9.95108L125.428 32.5731H116.355C112.298 32.5731 108.241 32.574 104.184 32.5776C103.879 32.5773 103.644 32.4915 103.422 32.3006C103.053 31.9786 102.651 31.6498 102.156 31.2627C102.008 31.147 101.856 30.9735 101.988 30.6503C103.275 27.4718 110.134 10.4612 110.134 10.4612ZM142.965 32.2506L112.55 10.0882L112.623 10.5392C112.646 10.6805 112.705 10.7814 112.762 10.8677C112.762 10.8677 123.09 26.1832 127.186 32.2665C127.333 32.4835 127.511 32.5768 127.788 32.5768C131.604 32.5733 142.843 32.5731 142.843 32.5731L142.965 32.2506ZM147.003 33.153C146.999 33.0952 146.918 33.0086 146.759 32.895C140.14 28.1696 115.698 10.683 110.249 6.78015C110.134 6.69684 110.057 6.70439 109.916 6.80073L103.945 10.864C99.1901 14.0993 94.4354 17.3348 89.682 20.5719C89.6071 20.6225 89.5055 20.6812 89.3827 20.6812C89.2429 20.6811 89.132 20.6038 89.0624 20.546C87.0748 18.914 85.0851 17.2848 83.0944 15.6562L80.6726 13.6722C80.5335 13.5585 80.4425 13.492 80.3888 13.492C80.3339 13.4919 80.2367 13.5478 80.0975 13.6376C80.0975 13.6376 58.1074 27.8645 50.1924 32.9767C49.8965 33.1682 49.8311 33.2546 49.8283 33.2914C49.8254 33.3244 49.8654 33.4171 50.155 33.6703C53.3663 36.4811 56.5586 39.2916 59.6422 42.023C59.9199 42.2688 60.179 42.3695 60.5382 42.3695C71.6453 42.3599 82.752 42.3594 93.8582 42.3594L98.7485 42.3657H106.086C116.326 42.3657 126.566 42.3657 136.805 42.3723C137.02 42.3723 137.168 42.3131 137.333 42.1611C140.401 39.324 143.573 36.3909 146.794 33.4462C146.988 33.2697 147.005 33.182 147.003 33.153Z" fill="white"/>
<path fill-rule="evenodd" clip-rule="evenodd" d="M193.095 52.7197C192.977 53.6021 192.701 55.0854 192.584 55.5663C191.758 55.8065 181.801 55.8065 180.109 55.8065C178.574 55.8065 174.6 55.7261 173.223 55.6464L173.381 56.4876C174.561 56.6084 177.04 56.8088 177.551 57.0496C177.67 58.1718 177.749 64.6264 177.749 68.2344V70.7197C177.749 75.1695 177.67 81.7051 177.551 82.6271C176.45 82.9473 173.853 83.108 173.381 83.1876L173.223 84.0292C174.6 83.9498 177.551 83.8694 179.795 83.8694C182.431 83.8694 185.658 83.9498 187.035 84.0292L186.878 83.1873C185.972 83.1078 184.045 82.9474 182.549 82.6271C182.353 81.5039 182.234 74.4082 182.234 71.0806V69.878C184.477 69.878 189.317 70.1585 190.262 70.8804C190.381 72.0832 190.459 73.4455 190.459 74.2881L191.285 74.5281C191.363 71.5218 191.678 67.5133 191.915 65.5883L191.089 65.7081C190.931 66.4702 190.734 67.472 190.538 68.0738C189.278 68.4749 184.163 68.6357 182.234 68.6357V67.7533C182.234 64.7462 182.353 57.571 182.549 57.0092C184.516 57.0092 190.813 57.5304 192.23 58.8936C192.347 59.655 192.426 61.4189 192.426 62.0604L193.331 62.3807C193.371 59.4141 193.686 54.3636 194 52.5195L193.095 52.7197ZM150.95 82.867C143.276 82.867 137.61 75.8118 137.61 68.6357C137.61 60.376 143.512 56.6886 148.904 56.6886C155.436 56.6886 161.22 62.7822 161.22 71.2809C161.22 77.6955 156.577 82.8671 150.95 82.867ZM161.26 58.4126C157.836 55.8468 154.531 55.1651 150.36 55.1651C139.499 55.1648 133.085 62.3808 133.085 70.3194C133.085 74.087 133.989 77.0136 136.862 80.0207C140.522 83.8287 145.047 84.5102 149.022 84.5102C158.703 84.51 166.022 78.1765 166.022 68.355C166.022 64.6262 164.369 60.7378 161.26 58.4126ZM112.977 71.4414L113.212 72.2834C113.961 72.4439 116.399 72.6442 117.187 72.7246C117.304 73.4453 117.345 74.6886 117.345 75.9312V78.0565C117.345 80.0604 117.304 81.4235 117.227 82.0247C115.573 82.9075 113.251 83.0675 112.228 83.0675C103.729 83.0675 98.259 74.6886 98.259 68.154C98.259 61.74 102.823 56.568 109.67 56.568C116.085 56.568 118.879 59.2141 119.902 60.4572C120.059 61.3793 120.256 62.7822 120.335 64.1455L121.239 64.6262C121.122 60.8982 121.554 53.8027 121.791 52.2383L120.885 52.4392C120.768 53.281 120.335 55.5258 120.177 56.1681C118.879 55.6863 114.747 55.1651 111.363 55.1651C107.349 55.1648 103.375 55.9266 99.7936 58.4126C96.331 60.817 93.576 64.8664 93.576 70.5188C93.576 75.5303 96.4489 80.0605 101.407 82.5858C104.712 84.2701 109.277 84.5102 111.835 84.5102C114.51 84.51 119.626 83.8694 121.908 83.1876C121.83 82.0651 121.83 79.9404 121.83 78.4572V77.1734C121.83 76.0518 121.869 73.4065 121.988 72.7246C122.854 72.5242 125.057 72.3233 125.411 72.2834L125.608 71.4414C125.135 71.5218 121.319 71.5616 119.43 71.5616C118.053 71.5616 115.023 71.5218 112.977 71.4414ZM81.8106 57.0496C83.2268 56.8888 85.1555 56.568 85.9421 56.4876L86.1394 55.6464C85.4701 55.7261 82.086 55.8065 80.0792 55.8065C76.9703 55.8065 73.3499 55.7261 72.6022 55.6464L72.7992 56.4876C73.5466 56.568 76.1436 56.8891 76.9303 57.0496C77.0888 58.4128 77.1277 65.9091 77.1277 67.2319V69.5973C77.1277 73.5265 77.0888 80.9427 76.9303 82.6271C76.1048 82.7868 73.4288 83.1479 72.76 83.1876L72.6024 84.0292C73.7829 83.9498 77.4032 83.8694 78.7414 83.8694C81.1811 83.8694 85.2733 83.9498 86.1394 84.0292L85.9422 83.1873C85.1555 83.1078 82.7945 82.8671 81.8106 82.6271C81.653 81.8249 81.6141 75.1291 81.6141 69.918V67.4322C81.6141 62.5015 81.653 57.8507 81.8106 57.0496ZM52.4976 68.9559C50.8058 69.5973 49.1138 69.7175 47.6968 69.7175V68.4749C47.6968 65.6287 47.7757 58.4525 47.8943 56.8088C54.701 56.8085 56.9839 59.9358 56.9839 62.5015C56.9839 66.4702 54.1898 68.3139 52.4976 68.9559ZM61.745 61.3793C61.745 59.1741 60.4468 57.6506 58.361 56.8088C55.6849 55.7261 51.0025 55.6863 47.2638 55.6863L38.7646 55.7261L38.8825 56.568C39.7484 56.6487 42.424 56.8891 43.0926 57.0496C43.2501 57.8111 43.2899 65.5078 43.2899 66.9514V69.397C43.2899 73.606 43.2501 81.4642 43.0926 82.6271C41.9909 82.9075 39.4723 83.1479 38.9215 83.1876L38.7646 84.0292C39.6695 83.9498 43.8012 83.8694 45.4144 83.8694C47.2246 83.8694 51.1994 83.9498 52.1831 84.0292L52.0256 83.1873C51.1602 83.1078 48.5628 82.8273 47.8943 82.6271C47.7757 80.7821 47.6968 74.6084 47.6968 72.0036V70.9607C48.3661 70.9606 49.9798 70.8401 51.4747 70.7199C52.1045 71.5616 62.5721 83.8694 65.3262 85.1525L67.0575 84.8717C62.9653 80.4618 56.6298 69.9584 56.1966 68.956C59.2264 67.2319 61.745 63.9047 61.745 61.3793ZM19.4003 71.4414L19.6359 72.2834C20.3842 72.4439 22.8238 72.6442 23.6103 72.7246C23.7284 73.4453 23.768 74.6886 23.768 75.9312L23.7682 78.0565C23.7682 80.0604 23.7284 81.4235 23.6501 82.0247C21.9971 82.9075 19.6756 83.0675 18.6526 83.0675C10.1524 83.0675 4.68278 74.6886 4.68278 68.154C4.68278 61.74 9.24761 56.568 16.0945 56.568C22.5088 56.568 25.3026 59.2141 26.3258 60.4572C26.4833 61.3793 26.6799 62.7822 26.7587 64.1455L27.6638 64.6262C27.5459 60.8982 27.9784 53.8027 28.2147 52.2383L27.3096 52.4392C27.1916 53.281 26.7587 55.5258 26.6019 56.1681C25.3026 55.6863 21.1714 55.1651 17.7866 55.1651C13.7727 55.1648 9.79835 55.9266 6.2173 58.4126C2.75479 60.817 0 64.8664 0 70.5188C0 75.5303 2.87274 80.0605 7.83113 82.5858C11.1363 84.2701 15.7009 84.5102 18.2587 84.5102C20.9349 84.51 26.0503 83.8694 28.3325 83.1876C28.2545 82.0651 28.2545 79.9404 28.2545 78.4572V77.1734C28.2545 76.0518 28.2935 73.4065 28.412 72.7246C29.2775 72.5242 31.4808 72.3233 31.8349 72.2834L32.0315 71.4414C31.5596 71.5218 27.7427 71.5616 25.8537 71.5616C24.4764 71.5616 21.4459 71.5218 19.4003 71.4414Z" fill="white"/>
<path fill-rule="evenodd" clip-rule="evenodd" d="M162.87 100.987V100.042H165.728V99.0719H162.87V98.1962H166.048V97.2254H161.817V101.974H166.166V100.987H162.87ZM152.713 99.1231L151.315 98.9603C150.952 98.9171 150.709 98.8484 150.709 98.5738C150.709 98.3075 150.927 98.0667 151.838 98.0667C152.58 98.0667 153.135 98.2216 153.683 98.6084L154.189 97.8178C153.464 97.2689 152.706 97.1136 151.838 97.1136C150.649 97.1133 149.672 97.577 149.672 98.5823C149.672 99.4667 150.253 99.8443 151.206 99.9555L152.773 100.136C153.169 100.179 153.305 100.309 153.305 100.566C153.305 100.97 152.765 101.158 152.023 101.158C151.256 101.158 150.632 100.952 149.992 100.497L149.495 101.329C150.237 101.889 150.952 102.094 151.905 102.094C153.305 102.094 154.324 101.613 154.324 100.549C154.324 99.6728 153.709 99.2433 152.713 99.1231ZM140.997 99.6555C140.997 100.582 140.584 101.15 139.666 101.15C138.747 101.15 138.334 100.583 138.334 99.6555V97.2254H137.28V99.6466C137.28 101.218 138.208 102.094 139.666 102.094C141.124 102.094 142.052 101.218 142.052 99.647V97.2254H140.997V99.6555ZM127.192 101.176C126.314 101.176 125.632 100.583 125.632 99.6043C125.632 98.6248 126.314 98.0328 127.192 98.0328C128.068 98.0325 128.75 98.625 128.75 99.6043C128.75 100.582 128.068 101.176 127.192 101.176ZM127.192 97.1133C125.775 97.1133 124.578 98.11 124.578 99.6043C124.578 101.098 125.775 102.094 127.192 102.094C128.607 102.094 129.804 101.098 129.804 99.6043C129.804 98.11 128.607 97.1136 127.192 97.1133ZM116.006 99.0371H113.377V97.2254H112.323V101.974H113.377V99.9988H116.006V101.974H117.061V97.2254H116.006V99.0371ZM94.0494 99.1231L92.6502 98.9603C92.2884 98.9171 92.0434 98.8484 92.0434 98.5738C92.0434 98.3075 92.2627 98.0667 93.1728 98.0667C93.9147 98.0667 94.4711 98.2216 95.0191 98.6084L95.5244 97.8178C94.7998 97.2689 94.041 97.1136 93.1728 97.1136C91.9843 97.1133 91.0068 97.577 91.0068 98.5823C91.0068 99.4667 91.5883 99.8443 92.541 99.9555L94.1082 100.136C94.5045 100.179 94.6399 100.309 94.6399 100.566C94.6401 100.97 94.1 101.158 93.358 101.158C92.5913 101.158 91.9674 100.952 91.3269 100.497L90.8294 101.329C91.5713 101.889 92.2884 102.094 93.2402 102.094C94.6401 102.094 95.6594 101.613 95.6594 100.549C95.6594 99.6728 95.0439 99.2433 94.0494 99.1231ZM80.3278 97.2254H79.2736V101.974H83.5386V101.003H80.3278V97.2254ZM68.4512 100.042H71.3084V99.0719H68.4512V98.1962H71.6291V97.2254H67.3977V101.974H71.7472V100.987H68.4512V100.042ZM57.6618 101.047H57.6115L56.575 97.2254H55.3023L54.2906 101.047H54.2318L53.0435 97.2254H51.922L53.5492 101.974H54.9822L55.9007 98.4108H55.9513L56.8532 101.974H58.3029L59.9803 97.2254H58.8757L57.6618 101.047ZM41.2684 100.042H44.1255V99.0719H41.2684V98.1962H44.4457V97.2254H40.2149V101.974H44.564V100.987H41.2684V100.042ZM31.6006 99.8014C31.6006 100.6 31.2969 101.141 30.3357 101.141C29.8133 101.141 29.3078 100.832 29.0973 100.309L28.1953 100.755C28.5746 101.605 29.342 102.094 30.3357 102.094C31.9207 102.094 32.6287 101.09 32.6287 99.8878V97.2254H31.6006V99.8014Z" fill="white"/>
</svg>
