<svg width="25" height="25" viewBox="0 0 25 25" fill="none" xmlns="http://www.w3.org/2000/svg">
<path d="M14.4722 12.5L24.4697 0.58291C24.6373 0.384864 24.4964 0.0839844 24.2374 0.0839844H21.1982C21.0192 0.0839844 20.8478 0.163965 20.7297 0.301074L12.4841 10.1311L4.23849 0.301074C4.12423 0.163965 3.95284 0.0839844 3.77003 0.0839844H0.730774C0.47179 0.0839844 0.330871 0.384864 0.49845 0.58291L10.496 12.5L0.49845 24.4171C0.460911 24.4612 0.436828 24.5152 0.42906 24.5726C0.421292 24.6301 0.430164 24.6885 0.454625 24.741C0.479087 24.7936 0.518109 24.838 0.567058 24.869C0.616007 24.9 0.672828 24.9163 0.730774 24.916H3.77003C3.94904 24.916 4.12042 24.836 4.23849 24.6989L12.4841 14.8689L20.7297 24.6989C20.844 24.836 21.0153 24.916 21.1982 24.916H24.2374C24.4964 24.916 24.6373 24.6151 24.4697 24.4171L14.4722 12.5Z" fill="#222222"/>
</svg>
