<svg width="54" height="54" viewBox="0 0 54 54" fill="none" xmlns="http://www.w3.org/2000/svg">
<circle cx="27" cy="27" r="26.4" stroke="white" stroke-opacity="0.5" stroke-width="1.2"/>
<g clip-path="url(#clip0_64_1843)">
<path d="M27.5005 18C24.7976 18 22.5989 20.0839 22.5989 22.6457C22.5989 25.2073 24.7976 27.2902 27.5005 27.2902C30.2033 27.2902 32.4009 25.2073 32.4009 22.6457C32.4009 20.0839 30.2033 18 27.5005 18ZM27.5005 20.7219C28.6191 20.7219 29.5288 21.5853 29.5288 22.6457C29.5288 23.7056 28.6192 24.5683 27.5005 24.5683C26.3816 24.5683 25.471 23.7056 25.471 22.6457C25.471 21.5853 26.3816 20.7219 27.5005 20.7219ZM23.4594 27.4483C22.9744 27.4412 22.4975 27.6677 22.2209 28.0856C21.7981 28.7222 22.0007 29.5623 22.6707 29.9627C23.557 30.4897 24.5188 30.8637 25.5161 31.0792L22.7769 33.6769C22.2162 34.2087 22.2167 35.0699 22.7775 35.6017C23.0586 35.8672 23.4253 36 23.7929 36C24.1601 36 24.5279 35.867 24.8082 35.6012L27.4993 33.0491L30.1929 35.6012C30.7531 36.1328 31.6617 36.1328 32.2229 35.6012C32.7839 35.0697 32.7839 34.2075 32.2229 33.6769L29.4825 31.0798C30.4802 30.8643 31.4423 30.4901 32.328 29.9627C32.9993 29.5623 33.2022 28.7213 32.7795 28.0856C32.3564 27.4489 31.4706 27.2571 30.7987 27.6581C28.7921 28.8546 26.2065 28.8538 24.2005 27.6581C23.9696 27.5203 23.7134 27.4521 23.4594 27.4483V27.4483Z" fill="white" fill-opacity="0.5"/>
</g>
<defs>
<clipPath id="clip0_64_1843">
<rect width="11" height="18" fill="white" transform="translate(22 18)"/>
</clipPath>
</defs>
</svg>
