<svg width="258" height="258" viewBox="0 0 258 258" fill="none" xmlns="http://www.w3.org/2000/svg">
<path d="M251.108 131.524L247.123 131.324L250.914 135.389L250.813 137.396L246.515 132.66L240.819 136.924L240.922 134.887L245.535 131.544L245.25 131.23L241.116 131.022L241.192 129.494L251.185 129.996L251.108 131.524Z" fill="white"/>
<path d="M249.054 143.034C249.871 144.171 250.16 145.474 249.92 146.945C249.68 148.415 248.992 149.56 247.856 150.377C246.719 151.195 245.421 151.485 243.96 151.246C242.499 151.008 241.36 150.321 240.542 149.184C239.725 148.048 239.436 146.744 239.676 145.274C239.916 143.803 240.604 142.659 241.74 141.841C242.877 141.024 244.175 140.734 245.636 140.972C247.097 141.21 248.236 141.898 249.054 143.034ZM242.529 143.064C241.727 143.633 241.24 144.445 241.067 145.501C240.895 146.557 241.099 147.482 241.679 148.275C242.268 149.071 243.111 149.558 244.206 149.736C245.302 149.915 246.251 149.72 247.053 149.152C247.864 148.585 248.356 147.774 248.529 146.718C248.701 145.662 248.492 144.736 247.903 143.941C247.323 143.147 246.485 142.661 245.39 142.482C244.294 142.304 243.34 142.498 242.529 143.064Z" fill="white"/>
<path d="M247.427 158.752L245.639 164.887L236.034 162.087L236.462 160.618L244.685 163.015L245.617 159.818L240.836 158.424C240.375 158.29 240.004 158.167 239.725 158.054C239.455 157.944 239.165 157.76 238.854 157.503C238.541 157.256 238.31 156.959 238.16 156.614C237.913 156.031 237.891 155.394 238.092 154.703C238.151 154.502 238.243 154.294 238.367 154.08L239.721 154.475C239.608 154.65 239.527 154.819 239.479 154.982C239.376 155.338 239.402 155.658 239.559 155.943C239.658 156.139 239.842 156.312 240.11 156.463C240.386 156.627 240.618 156.741 240.807 156.807C240.996 156.872 241.292 156.964 241.696 157.081L247.427 158.752Z" fill="white"/>
<path d="M234.473 166.903L243.745 170.662L243.17 172.08L239.431 170.564L239.003 171.62C238.601 172.612 238.041 173.286 237.325 173.643C236.578 174.02 235.779 174.036 234.926 173.69C234.481 173.51 234.097 173.235 233.771 172.866C233.452 172.51 233.242 172.096 233.142 171.624C233.011 170.988 233.119 170.244 233.465 169.391L234.473 166.903ZM238.097 170.023L235.233 168.862L234.827 169.863C234.324 171.105 234.54 171.915 235.476 172.295C235.884 172.46 236.283 172.46 236.674 172.295C237.07 172.143 237.405 171.728 237.68 171.052L238.097 170.023Z" fill="white"/>
<path d="M230.433 176.711L239.264 181.413L238.544 182.764L230.985 178.738L229.039 182.392L236.599 186.418L235.879 187.768L228.32 183.743L227.713 184.881L224.456 183.147L225.133 181.876L227.119 182.933L230.433 176.711Z" fill="white"/>
<path d="M220.574 193.366L223.161 193.862L225.573 190.333L224.197 188.066L225.129 186.704L231.061 196.791L219.643 194.728L220.574 193.366ZM226.406 191.665L224.696 194.167L228.333 194.854L226.406 191.665Z" fill="white"/>
<path d="M165.481 244.866L164.9 243.162C165.915 243.598 166.891 243.656 167.828 243.336C168.85 242.987 169.566 242.362 169.977 241.461C170.382 240.573 170.405 239.603 170.047 238.553C169.701 237.54 169.085 236.804 168.2 236.346C167.317 235.897 166.375 235.844 165.372 236.186C164.435 236.506 163.707 237.161 163.189 238.151L162.603 236.433C163.237 235.689 164.022 235.157 164.959 234.837C166.274 234.388 167.54 234.442 168.755 235C170.09 235.6 171.004 236.62 171.495 238.059C172.011 239.573 171.927 240.981 171.24 242.282C170.65 243.403 169.651 244.204 168.24 244.685C167.266 245.017 166.346 245.078 165.481 244.866Z" fill="white"/>
<path d="M155.429 248.117L155.095 246.716L158.976 245.79L158.388 243.325L154.624 244.223L154.289 242.822L158.054 241.924L157.323 238.86L153.441 239.786L153.107 238.385L158.476 237.104L160.799 246.836L155.429 248.117Z" fill="white"/>
<path d="M150.633 249.129L148.453 249.459C147.543 249.597 146.795 249.528 146.207 249.253C145.771 249.046 145.416 248.74 145.143 248.337C144.861 247.944 144.684 247.511 144.612 247.036C144.478 246.146 144.69 245.376 145.249 244.725C145.774 244.12 146.541 243.741 147.55 243.588L148.232 243.485L147.624 239.466L149.136 239.237L150.633 249.129ZM148.91 247.964L148.443 244.879L147.761 244.982C147.128 245.078 146.669 245.289 146.385 245.615C146.102 245.951 145.996 246.357 146.068 246.831C146.094 246.999 146.142 247.154 146.214 247.295C146.276 247.437 146.384 247.582 146.538 247.731C146.684 247.891 146.902 248 147.194 248.056C147.487 248.123 147.837 248.126 148.242 248.065L148.91 247.964Z" fill="white"/>
<path d="M139.671 240.583L140.288 250.569L138.761 250.663L138.512 246.636L137.374 246.706C136.306 246.772 135.456 246.559 134.825 246.067C134.162 245.557 133.802 244.843 133.746 243.925C133.716 243.446 133.797 242.98 133.99 242.527C134.173 242.085 134.456 241.717 134.838 241.423C135.355 241.03 136.073 240.805 136.991 240.749L139.671 240.583ZM138.423 245.199L138.232 242.115L137.154 242.181C135.817 242.264 135.179 242.809 135.242 243.817C135.269 244.257 135.441 244.617 135.759 244.898C136.068 245.189 136.587 245.312 137.315 245.267L138.423 245.199Z" fill="white"/>
<path d="M128.66 241.093L128.39 251.094L123.382 250.959L123.421 249.519L126.9 249.613L127.131 241.051L128.66 241.093Z" fill="white"/>
<path d="M113.44 240.042L112.611 246.726L120.194 240.426L118.908 250.801L117.389 250.613L118.222 243.9L110.639 250.2L111.921 239.854L113.44 240.042Z" fill="white"/>
<path d="M53.4964 212.415L46.5515 219.617L42.9451 216.14L43.9447 215.103L46.4497 217.519L48.251 215.651L47.5384 214.963C46.7682 214.221 46.3511 213.45 46.2871 212.652C46.2153 211.819 46.4988 211.071 47.1374 210.409C47.4706 210.064 47.8691 209.809 48.3329 209.645C48.7825 209.481 49.245 209.441 49.7204 209.524C50.359 209.64 51.0094 210.017 51.6716 210.656L53.4964 212.415ZM49.2506 214.614L51.3955 212.39L50.7261 211.744C49.7615 210.814 48.9287 210.713 48.2276 211.44C47.9221 211.756 47.7733 212.127 47.781 212.551C47.7746 212.975 48.0341 213.441 48.5596 213.948L49.2506 214.614Z" fill="white"/>
<path d="M38.4874 211.617L37.0396 209.954C36.4355 209.261 36.0919 208.592 36.0088 207.948C35.9498 207.469 36.0173 207.006 36.2113 206.559C36.3911 206.11 36.662 205.729 37.0241 205.413C37.7029 204.823 38.4668 204.588 39.316 204.711C40.1087 204.829 40.84 205.273 41.5097 206.043L41.9628 206.563L45.0287 203.894L46.0333 205.048L38.4874 211.617ZM38.5462 209.538L40.8994 207.489L40.4463 206.969C40.0261 206.486 39.602 206.212 39.1741 206.147C38.7387 206.088 38.34 206.217 37.978 206.532C37.8498 206.644 37.7455 206.768 37.6652 206.904C37.5784 207.032 37.5135 207.202 37.4706 207.411C37.4137 207.62 37.4394 207.863 37.5479 208.14C37.6487 208.423 37.8338 208.719 38.103 209.029L38.5462 209.538Z" fill="white"/>
<path d="M35.7901 192.182L34.43 194.437L36.9068 197.921L39.5096 197.415L40.4655 198.76L28.9486 200.836L34.8342 190.837L35.7901 192.182ZM35.368 198.242L33.6126 195.772L31.7098 198.947L35.368 198.242Z" fill="white"/>
<path d="M20.8242 185.77L22.3939 184.889C22.1499 185.966 22.2702 186.936 22.7548 187.8C23.2834 188.741 24.0281 189.333 24.9888 189.573C25.9359 189.81 26.8934 189.657 27.8613 189.113C28.7944 188.59 29.406 187.851 29.6961 186.897C29.9775 185.947 29.8588 185.011 29.34 184.086C28.8554 183.223 28.0792 182.626 27.0112 182.297L28.594 181.409C29.4411 181.896 30.107 182.572 30.5916 183.435C31.2719 184.647 31.4483 185.902 31.1209 187.198C30.7726 188.62 29.9357 189.703 28.6102 190.447C27.215 191.231 25.8151 191.403 24.4106 190.964C23.2017 190.588 22.2325 189.75 21.5032 188.451C20.9991 187.552 20.7728 186.659 20.8242 185.77Z" fill="white"/>
<path d="M15.8555 176.589L17.171 176.003L18.7936 179.648L21.1095 178.618L19.5357 175.082L20.8513 174.496L22.4251 178.032L25.3028 176.751L23.6803 173.106L24.9958 172.52L27.2406 177.563L18.1002 181.632L15.8555 176.589Z" fill="white"/>
<path d="M13.5363 170.922L11.5409 164.851L21.0455 161.727L21.5233 163.18L13.3866 165.855L14.4265 169.018L19.1575 167.463C19.6135 167.313 19.9886 167.206 20.283 167.141C20.5679 167.079 20.911 167.066 21.3125 167.102C21.7108 167.129 22.0693 167.243 22.3878 167.444C22.9209 167.784 23.2998 168.296 23.5246 168.98C23.5902 169.18 23.632 169.403 23.6499 169.65L22.3104 170.09C22.305 169.881 22.2757 169.696 22.2226 169.535C22.1071 169.183 21.9041 168.934 21.6138 168.787C21.4214 168.682 21.1717 168.643 20.8648 168.671C20.5454 168.691 20.2891 168.728 20.0959 168.781C19.9028 168.834 19.6068 168.926 19.2078 169.057L13.5363 170.922Z" fill="white"/>
<path d="M8.63789 153.574L10.0435 153.261L10.9104 157.155L13.3848 156.605L12.544 152.827L13.9496 152.514L14.7904 156.292L17.8652 155.607L16.9983 151.713L18.4039 151.4L19.6032 156.788L9.83718 158.962L8.63789 153.574Z" fill="white"/>
<path d="M8.45003 143.649L8.76727 145.922L17.25 144.738L17.4615 146.253L8.97877 147.437L9.29601 149.71L7.86984 149.909L7.02385 143.848L8.45003 143.649Z" fill="white"/>
<path d="M16.4444 139.188L6.44844 139.613L6.38351 138.084L10.4149 137.913L10.3665 136.774C10.3211 135.705 10.5504 134.86 11.0545 134.238C11.5772 133.585 12.2982 133.239 13.2174 133.2C13.6969 133.18 14.1612 133.27 14.6101 133.471C15.0487 133.663 15.4113 133.953 15.698 134.341C16.0806 134.865 16.2914 135.587 16.3305 136.506L16.4444 139.188ZM11.8536 137.852L14.9408 137.721L14.895 136.642C14.8381 135.303 14.3051 134.655 13.296 134.698C12.8564 134.717 12.4931 134.882 12.2061 135.195C11.9087 135.498 11.7755 136.014 11.8065 136.743L11.8536 137.852ZM6.14416 132.45L6.07923 130.921L16.0752 130.496L16.1401 132.025L6.14416 132.45Z" fill="white"/>
<path d="M33.4913 68.1866L25.3153 62.42L26.1972 61.1697L33.1964 66.1063L35.5826 62.7231L28.5833 57.7865L29.4652 56.5362L36.4644 61.4728L37.2079 60.4186L40.2233 62.5454L39.3934 63.7222L37.5547 62.4254L33.4913 68.1866Z" fill="white"/>
<path d="M36.9846 47.199L38.0741 48.1406L35.4651 51.1594L37.383 52.817L39.9136 49.889L41.0031 50.8306L38.4725 53.7586L40.8558 55.8183L43.4648 52.7995L44.5543 53.7411L40.9449 57.9175L33.3751 51.3754L36.9846 47.199Z" fill="white"/>
<path d="M39.8738 43.8913L45.1831 38.8086L52.1018 46.0357L50.9966 47.0938L45.0737 40.9068L41.9748 43.8735L47.8978 50.0604L46.7926 51.1184L39.8738 43.8913Z" fill="white"/>
<path d="M61.5243 38.2159L57.4637 32.8427L56.4104 42.6446L50.107 34.3035L51.3276 33.3811L55.4063 38.7782L56.4596 28.9763L62.745 37.2935L61.5243 38.2159Z" fill="white"/>
<path d="M124.079 6.00408L131.429 6.06083L131.352 16.0655L129.822 16.0537L129.888 7.48897L125.598 7.45585L125.532 16.0206L124.002 16.0088L124.079 6.00408Z" fill="white"/>
<path d="M138.845 7.65936C139.953 6.8029 141.246 6.46915 142.724 6.65811C144.202 6.84706 145.369 7.49532 146.225 8.60287C147.082 9.71043 147.416 10.9982 147.229 12.4663C147.041 13.9343 146.393 15.0966 145.286 15.953C144.178 16.8095 142.885 17.1433 141.407 16.9543C139.929 16.7653 138.762 16.1171 137.906 15.0095C137.049 13.902 136.715 12.6142 136.903 11.1461C137.09 9.67808 137.738 8.51582 138.845 7.65936ZM139.101 14.1794C139.696 14.9612 140.525 15.42 141.586 15.5557C142.648 15.6914 143.565 15.4558 144.338 14.849C145.112 14.2322 145.57 13.3733 145.711 12.2723C145.852 11.1712 145.624 10.2298 145.029 9.44792C144.434 8.65615 143.606 8.19242 142.545 8.05672C141.484 7.92103 140.566 8.16157 139.791 8.77833C139.018 9.38518 138.561 10.2391 138.42 11.3402C138.279 12.4412 138.506 13.3876 139.101 14.1794Z" fill="white"/>
<path d="M154.127 8.62547L160.18 10.143L158.097 18.4508L159.203 18.7281L158.306 22.3073L156.909 21.9571L157.456 19.7746L151.2 18.2061L150.653 20.3885L149.256 20.0383L150.153 16.4591C150.48 16.5515 150.81 16.5105 151.143 16.3361C151.478 16.152 151.771 15.8854 152.024 15.5363C152.405 15.003 152.734 14.1834 153.011 13.0777L154.127 8.62547ZM155.261 10.3943L154.495 13.4498C154.191 14.6622 153.854 15.5363 153.482 16.0721C153.196 16.4745 152.847 16.7944 152.437 17.0318L156.613 18.0788L158.346 11.1677L155.261 10.3943Z" fill="white"/>
<path d="M166.076 11.7951L167.5 12.3114C168.139 12.5431 168.638 12.7822 168.995 13.0287C169.352 13.2752 169.63 13.594 169.829 13.9851C170.157 14.6358 170.181 15.3466 169.902 16.1175C169.742 16.5594 169.513 16.8967 169.216 17.1294C168.941 17.3595 168.628 17.4905 168.276 17.5225C168.72 17.8219 169.043 18.1941 169.243 18.639C169.5 19.2214 169.494 19.884 169.225 20.6267C168.976 21.313 168.565 21.8021 167.991 22.0941C167.187 22.4939 166.197 22.4809 165.022 22.055L162.667 21.2014L166.076 11.7951ZM167.023 13.6703L166.047 16.3638L166.484 16.5223C167.011 16.7131 167.445 16.7323 167.788 16.5798C168.117 16.4334 168.369 16.1204 168.543 15.641C168.683 15.2555 168.679 14.9137 168.532 14.6157C168.372 14.2921 168.034 14.0366 167.517 13.8492L167.023 13.6703ZM165.618 17.5484L164.596 20.3689L165.47 20.6858C166.119 20.9209 166.638 20.9708 167.027 20.8354C167.426 20.7034 167.707 20.4117 167.871 19.9605C168.017 19.5562 168.01 19.1811 167.848 18.8353C167.659 18.4476 167.216 18.1277 166.52 17.8756L165.618 17.5484Z" fill="white"/>
<path d="M181.759 18.1404L181.149 19.4448L177.534 17.7547L176.461 20.051L179.966 21.6903L179.356 22.9948L175.851 21.3555L174.516 24.2089L178.131 25.899L177.521 27.2035L172.52 24.8652L176.759 15.8022L181.759 18.1404Z" fill="white"/>
<path d="M192.783 24.789L191.867 26.3388C191.537 25.2846 190.946 24.5057 190.094 24.0022C189.164 23.4529 188.223 23.3152 187.272 23.5893C186.334 23.8598 185.583 24.4729 185.018 25.4286C184.474 26.3499 184.316 27.2959 184.543 28.2668C184.776 29.2291 185.349 29.9798 186.262 30.5189C187.114 31.0224 188.085 31.1487 189.174 30.8977L188.251 32.4604C187.273 32.4637 186.358 32.2135 185.506 31.71C184.309 31.003 183.527 30.0068 183.16 28.7213C182.747 27.3161 182.928 25.9591 183.701 24.6504C184.514 23.2728 185.639 22.4214 187.074 22.096C188.308 21.8149 189.567 22.0532 190.85 22.8111C191.737 23.335 192.381 23.9943 192.783 24.789Z" fill="white"/>
<path d="M198.074 27.5741L195.715 30.7921L201.195 29.862L202.816 31.0503L196.496 32.0346L196.925 39.1374L195.28 37.9313L195.026 32.2398L194.606 32.3044L192.159 35.6434L190.925 34.7389L196.84 26.6696L198.074 27.5741Z" fill="white"/>
<path d="M205.561 46.4909L210.13 41.5421L200.296 42.2432L207.388 34.5609L208.512 35.5986L203.923 40.5695L213.757 39.8684L206.686 47.5287L205.561 46.4909Z" fill="white"/>
<circle cx="89.0977" cy="17.0391" r="2" fill="white"/>
<circle cx="15.0977" cy="101.039" r="2" fill="white"/>
<circle cx="235.098" cy="83.0391" r="2" fill="white"/>
<circle cx="200.098" cy="221.039" r="2" fill="white"/>
<circle cx="77.0977" cy="234.039" r="2" fill="white"/>
<path fill-rule="evenodd" clip-rule="evenodd" d="M167.133 144.55L158.819 138.483H173.703L167.133 144.55ZM148.066 144.998H164.867L164.376 144.596C164.34 144.566 164.314 144.544 164.285 144.523L163.056 143.625C161.031 142.146 159.005 140.667 156.982 139.183C156.745 139.008 156.503 139.115 156.367 139.209C154.62 140.43 152.872 141.649 151.124 142.868L148.066 144.998ZM137.26 138.475H154.527L145.742 144.602L137.26 138.475ZM142.929 145.007L143.047 144.693L135.165 139.001L127.693 145.007H142.929ZM125.518 144.455C123.277 142.577 121.06 140.716 118.792 138.813L118.393 138.478H133.192L125.634 144.552L125.518 144.455ZM109.066 145.002H123.614L116.492 139.029L109.066 145.002ZM99.3505 138.479H114.551L106.991 144.561L99.3505 138.479ZM91.823 145.006H104.904L97.456 139.076L91.823 145.006ZM90.0766 144.475L83.417 138.485H95.7661L90.0766 144.475ZM107.482 121.695L107.586 121.791C107.601 121.804 107.614 121.816 107.627 121.829L107.729 121.935L107.62 122.115C107.594 122.16 107.567 122.206 107.537 122.248L106.451 123.74C103.343 128.016 100.235 132.29 97.1291 136.567C97.0249 136.71 96.8808 136.855 96.6024 136.855C93.842 136.85 91.0811 136.851 88.3204 136.85L84.9665 136.85C84.9261 136.85 84.8833 136.846 84.8202 136.84L84.146 136.785L107.482 121.695ZM115.61 136.83L110.206 121.37L98.962 136.83H115.61ZM131.262 136.789C131.262 136.789 120.572 136.851 117.74 136.853C117.546 136.853 117.333 136.811 117.227 136.501C115.853 132.559 111.818 120.873 111.818 120.873L131.262 136.789ZM138.372 114.244L120.869 126.154L130.693 134.195L138.659 114.433L138.372 114.244ZM140.305 114.739C140.318 114.706 140.333 114.674 140.352 114.632L140.53 114.228L155.6 136.85H146.527C142.47 136.85 138.413 136.851 134.356 136.855C134.051 136.855 133.816 136.769 133.594 136.578C133.225 136.256 132.823 135.927 132.328 135.54C132.18 135.424 132.028 135.251 132.16 134.928C133.446 131.749 140.305 114.739 140.305 114.739ZM173.137 136.528L142.721 114.366L142.795 114.817C142.818 114.958 142.877 115.059 142.933 115.145C142.933 115.145 153.262 130.461 157.358 136.544C157.505 136.761 157.683 136.854 157.959 136.854C161.776 136.851 173.015 136.85 173.015 136.85L173.137 136.528ZM177.175 137.43C177.171 137.373 177.09 137.286 176.931 137.172C170.312 132.447 145.87 114.96 140.421 111.057C140.305 110.974 140.229 110.982 140.088 111.078L134.117 115.141C129.362 118.377 124.607 121.612 119.854 124.849C119.779 124.9 119.677 124.959 119.555 124.959C119.415 124.958 119.304 124.881 119.234 124.823C117.247 123.191 115.257 121.562 113.266 119.934L110.844 117.95C110.705 117.836 110.614 117.769 110.561 117.769C110.506 117.769 110.409 117.825 110.269 117.915C110.269 117.915 88.2793 132.142 80.3643 137.254C80.0684 137.446 80.003 137.532 80.0001 137.569C79.9973 137.602 80.0372 137.694 80.3269 137.948C83.5381 140.758 86.7305 143.569 89.8141 146.3C90.0917 146.546 90.3508 146.647 90.7101 146.647C101.817 146.637 112.924 146.637 124.03 146.637L128.92 146.643H136.258C146.498 146.643 156.738 146.643 166.977 146.65C167.192 146.65 167.34 146.59 167.505 146.438C170.573 143.601 173.744 140.668 176.966 137.724C177.16 137.547 177.177 137.459 177.175 137.43Z" fill="white"/>
</svg>
