<svg width="127" height="134" viewBox="0 0 127 134" fill="none" xmlns="http://www.w3.org/2000/svg">
<path d="M12.8647 36.9751L61.6722 11.2876L113.74 43.3327L110.827 94.4843L63.093 121.714L9.25789 92.3633L12.8647 36.9751Z" stroke="white" stroke-opacity="0.6" stroke-width="0.5"/>
<path d="M22.0849 25.7112L80.0062 13.8067L118.594 57.3499L101.802 106.752L50.7501 120.626L7.30932 79.6846L22.0849 25.7112Z" stroke="white"/>
<path d="M46.898 65.5324L46.9274 65.5031L54.7197 57.7161L62.512 49.9293L62.5413 49.9L62.5827 49.9L69.8014 49.902C71.9482 49.9026 73.7737 49.9159 75.0776 49.9385C75.7294 49.9498 76.2515 49.9634 76.6184 49.9789C76.8016 49.9866 76.9472 49.9949 77.0513 50.0037C77.1031 50.0081 77.1462 50.0127 77.179 50.0177C77.1953 50.0202 77.2107 50.023 77.2241 50.0263C77.2344 50.0289 77.2546 50.0342 77.273 50.0458L46.898 65.5324ZM46.898 65.5324V65.5739M46.898 65.5324V65.5739M46.898 65.5739V72.8795M46.898 65.5739V72.8795M46.898 72.8795C46.898 75.7215 46.9073 77.5564 46.9329 78.694M46.898 72.8795L46.9329 78.694M46.9329 78.694C46.9456 79.2624 46.9625 79.6588 46.9845 79.9202M46.9329 78.694L46.9845 79.9202M46.9845 79.9202C46.9955 80.0506 47.008 80.1504 47.0227 80.2223M46.9845 79.9202L47.0227 80.2223M47.0227 80.2223C47.03 80.2581 47.0384 80.29 47.0486 80.3165M47.0227 80.2223L47.0486 80.3165M47.0486 80.3165C47.0576 80.3398 47.0732 80.3732 47.1028 80.3968L47.0486 80.3165ZM47.1788 80.4285C47.1673 80.4258 47.1558 80.4227 47.1455 80.4191L47.1788 80.4285ZM47.1788 80.4285C47.2019 80.4341 47.232 80.4399 47.2677 80.4459M47.1788 80.4285L47.2677 80.4459M47.2677 80.4459C47.3395 80.458 47.4402 80.4722 47.5671 80.4883M47.2677 80.4459L47.5671 80.4883M47.5671 80.4883C47.8212 80.5204 48.1845 80.5606 48.641 80.6075M47.5671 80.4883L48.641 80.6075M48.641 80.6075C49.5541 80.7014 50.8425 80.8226 52.3805 80.9609M48.641 80.6075L52.3805 80.9609M52.3805 80.9609C55.4565 81.2373 59.5324 81.5821 63.6049 81.9136M52.3805 80.9609L63.6049 81.9136M63.6049 81.9136C67.6774 82.2451 71.7467 82.5633 74.8098 82.7865M63.6049 81.9136L74.8098 82.7865M74.8098 82.7865C76.3412 82.8981 77.6214 82.986 78.5248 83.04M74.8098 82.7865L78.5248 83.04M78.5248 83.04C78.9764 83.0669 79.3345 83.0855 79.5829 83.0942M78.5248 83.04L79.5829 83.0942M79.5829 83.0942C79.7069 83.0986 79.8049 83.1006 79.8739 83.0999M79.5829 83.0942L79.8739 83.0999M79.8739 83.0999C79.9081 83.0995 79.9372 83.0985 79.9595 83.0965M79.8739 83.0999L79.9595 83.0965M79.9595 83.0965C79.9654 83.0959 79.9715 83.0953 79.9776 83.0944M79.9595 83.0965L79.9776 83.0944M79.9776 83.0944C79.983 83.0936 79.9884 83.0927 79.9937 83.0916M79.9776 83.0944L79.9937 83.0916M79.9937 83.0916C79.9992 83.0903 80.007 83.0884 80.0155 83.0851M79.9937 83.0916L80.0155 83.0851M80.0155 83.0851C80.0219 83.0825 80.039 83.0754 80.0545 83.0593M80.0155 83.0851L80.0545 83.0593M80.0545 83.0593C80.076 83.0371 80.0827 83.0103 80.0845 83.0035M80.0545 83.0593L80.0845 83.0035M80.0845 83.0035C80.0876 82.9915 80.0897 82.9787 80.0911 82.9669M80.0845 83.0035L80.0911 82.9669M80.0911 82.9669C80.0941 82.9428 80.0959 82.9122 80.0969 82.8767M80.0911 82.9669L80.0969 82.8767M80.0969 82.8767C80.099 82.8051 80.0982 82.7047 80.0949 82.5784M80.0969 82.8767L80.0949 82.5784M80.0949 82.5784C80.0882 82.3254 80.0712 81.9627 80.0454 81.5068M80.0949 82.5784L80.0454 81.5068M80.0454 81.5068C79.9936 80.5947 79.906 79.3058 79.7931 77.7663M80.0454 81.5068L79.7931 77.7663M79.7931 77.7663C79.5675 74.6873 79.2407 70.604 78.8976 66.5232M79.7931 77.7663L78.8976 66.5232M78.8976 66.5232C78.5545 62.4425 78.195 58.364 77.9037 55.2944M78.8976 66.5232L77.9037 55.2944M77.9037 55.2944C77.758 53.7597 77.6294 52.4767 77.5283 51.5717M77.9037 55.2944L77.5283 51.5717M77.5283 51.5717C77.4778 51.1194 77.4341 50.7606 77.3986 50.5117M77.5283 51.5717L77.3986 50.5117M77.3986 50.5117C77.3809 50.3875 77.3649 50.2892 77.351 50.2198M77.3986 50.5117L77.351 50.2198M77.351 50.2198C77.3441 50.1854 77.3372 50.1558 77.3302 50.1329M77.351 50.2198L77.3302 50.1329M77.3302 50.1329C77.3268 50.1217 77.3226 50.1094 77.3171 50.0978M77.3302 50.1329L77.3171 50.0978M77.3171 50.0978C77.3144 50.0921 77.3105 50.0845 77.305 50.0766M77.3171 50.0978L77.305 50.0766M77.305 50.0766C77.3001 50.0696 77.29 50.0565 77.2731 50.0459L77.305 50.0766ZM73.4266 53.9847L73.4994 54.0532L73.9235 54.3015L73.9976 54.3686C73.9976 54.3686 73.9977 54.3686 73.9977 54.3686C74.1261 54.2267 74.2043 54.0954 74.2326 53.9824C74.2609 53.8692 74.2415 53.7485 74.1354 53.6863C74.0418 53.6315 73.9199 53.6488 73.8075 53.6977C73.6901 53.7488 73.5591 53.8437 73.4266 53.9847ZM48.9291 66.4855L48.8685 66.5528L48.9291 66.4855L48.1462 65.781L51.6824 62.2408L51.6241 62.1826L51.6824 62.2407L55.1249 58.7942L55.158 61.9093C55.1777 63.7527 55.1777 66.7338 55.158 68.5333L55.1246 71.5976L53.8974 70.5872C53.2576 70.0604 52.8132 69.7227 52.5268 69.5557C52.4546 69.5136 52.3902 69.481 52.3334 69.4588C52.278 69.437 52.2231 69.4225 52.1722 69.4233C52.118 69.424 52.0622 69.4428 52.0236 69.4925C51.9886 69.5375 51.9797 69.593 51.9797 69.6415C51.9797 69.6632 51.9862 69.6804 51.9897 69.6885C51.9938 69.6982 51.9988 69.7068 52.0031 69.7137C52.0117 69.7274 52.0226 69.7418 52.0342 69.7558C52.0577 69.7843 52.0907 69.8199 52.1308 69.8609C52.2115 69.9432 52.3271 70.0531 52.4683 70.1824C52.7511 70.4413 53.1405 70.7811 53.5683 71.1396L55.0375 72.3707L51.5234 75.8861C50.5359 76.874 49.6343 77.772 48.9773 78.4231C48.6488 78.7486 48.3815 79.0122 48.1953 79.1945C48.1437 79.245 48.0983 79.2891 48.0597 79.3266C48.0581 79.2477 48.0566 79.1483 48.0552 79.0299C48.0511 78.6967 48.0474 78.2147 48.0443 77.6195C48.038 76.4293 48.0341 74.7875 48.0341 72.9814C48.0341 72.2587 48.033 71.6135 48.032 71.0383C48.0305 70.1419 48.0292 69.4155 48.0329 68.8306C48.0391 67.8674 48.059 67.2977 48.1114 66.9871C48.1243 66.9103 48.1387 66.8529 48.154 66.811C48.1696 66.7683 48.1838 66.7481 48.1926 66.7393C48.1984 66.7336 48.2005 66.7336 48.2027 66.7336L48.2031 66.7336C48.2095 66.7334 48.2251 66.7357 48.2536 66.7502C48.3125 66.78 48.3889 66.8413 48.4929 66.9312C48.5146 66.95 48.5373 66.9698 48.5609 66.9905C48.6465 67.0652 48.7446 67.1509 48.854 67.2378L48.9157 67.1602L48.854 67.2378C49.0843 67.4207 49.2627 67.5339 49.3873 67.5824C49.4451 67.6049 49.5139 67.6228 49.5747 67.6036C49.6103 67.5924 49.642 67.5687 49.6611 67.5323C49.6786 67.4988 49.6808 67.4635 49.6783 67.4349C49.6733 67.3795 49.6475 67.3183 49.6138 67.2579C49.5788 67.195 49.5296 67.1232 49.4676 67.0446C49.3434 66.8871 49.1631 66.6961 48.9291 66.4855ZM67.5821 77.1565L56.1191 72.2436L62.6745 65.6874C65.3753 62.9863 67.0442 61.3332 68.0482 60.3793C68.5508 59.9018 68.8843 59.6019 69.0964 59.4335C69.1909 59.3585 69.2567 59.3133 69.3002 59.2897C69.5595 59.8927 71.7041 64.8964 74.2461 70.8297C75.585 73.9547 76.7984 76.7992 77.6749 78.8647C78.1131 79.8974 78.4671 80.7353 78.7103 81.3161C78.832 81.6065 78.9258 81.8324 78.9887 81.9862C78.9923 81.995 78.9958 82.0035 78.9992 82.0118C78.9893 82.0078 78.9792 82.0037 78.9687 81.9994C78.8118 81.9352 78.5812 81.8393 78.2848 81.715C77.6921 81.4666 76.837 81.1051 75.7829 80.6576C73.6749 79.7626 70.7716 78.5235 67.5821 77.1565ZM50.178 68.0163L50.1779 68.0163C50.1482 68.0644 50.1467 68.1174 50.1552 68.1617C50.1636 68.2056 50.1831 68.2487 50.2064 68.2883C50.2533 68.3677 50.3267 68.4507 50.4088 68.5252C50.4915 68.6003 50.5875 68.6707 50.6832 68.7232C50.7766 68.7745 50.8799 68.8144 50.9747 68.8161C51.0448 68.8174 51.1213 68.8068 51.1757 68.7591C51.2404 68.7023 51.2439 68.6227 51.2256 68.5575C51.2082 68.4952 51.168 68.429 51.1157 68.3621C51.0623 68.2936 50.9907 68.2174 50.9026 68.1346L50.9026 68.1346C50.8139 68.0514 50.7392 67.9849 50.675 67.9363C50.6122 67.8889 50.5509 67.8517 50.4894 67.8367C50.4204 67.82 50.3564 67.8325 50.3004 67.8724C50.251 67.9075 50.2122 67.9608 50.178 68.0163ZM52.1421 76.2189L52.0891 76.1658L52.1421 76.2189L55.6283 72.7314L55.9767 72.8777C56.202 72.9723 61.1275 75.0819 66.923 77.5658C69.8204 78.8076 72.45 79.9404 74.3526 80.765C75.3039 81.1773 76.0733 81.5125 76.6034 81.7457C76.724 81.7988 76.8322 81.8466 76.9273 81.8887C76.7653 81.8767 76.5685 81.8616 76.3395 81.8439C75.6186 81.7879 74.5784 81.7048 73.2964 81.6008C70.7323 81.3927 67.2009 81.1011 63.3212 80.7761C59.4414 80.4512 55.8767 80.1552 53.2591 79.94C50.8658 79.7433 49.2583 79.6136 48.9304 79.5919C48.9829 79.5002 49.1081 79.3422 49.3393 79.0863C49.8046 78.5716 50.6719 77.6896 52.1421 76.2189ZM48.8728 79.5887C48.8686 79.5887 48.8667 79.5883 48.8665 79.5883C48.8663 79.5883 48.8687 79.5887 48.8727 79.5905L48.8712 79.6887L48.8728 79.5887ZM75.7465 51.6667C75.4366 51.9798 75.2398 52.1958 75.1377 52.3519C75.0869 52.4297 75.0519 52.5036 75.0451 52.5751C75.0375 52.6547 75.0658 52.7203 75.1168 52.7712C75.1635 52.8179 75.2229 52.8497 75.2976 52.8495C75.3666 52.8494 75.4356 52.8217 75.5052 52.7803C75.6433 52.6979 75.8273 52.5334 76.088 52.2766C76.2365 52.1304 76.3511 52.0197 76.4398 51.9396C76.504 51.8817 76.551 51.8431 76.5851 51.8192C76.5855 51.8296 76.5856 51.8412 76.5856 51.8541C76.5856 51.8805 76.5949 52.0119 76.611 52.2253C76.6274 52.4421 76.6514 52.7502 76.6819 53.1364C76.7431 53.909 76.8306 54.9947 76.9358 56.2903C77.1463 58.8816 77.4279 62.313 77.7125 65.7588C78.2816 72.6485 78.8629 79.6013 78.9107 80.0068C78.9111 80.0107 78.9116 80.0146 78.912 80.0184C78.851 79.8811 78.7742 79.7069 78.683 79.4989C78.4371 78.938 78.0866 78.132 77.6574 77.1406C76.7991 75.1579 75.6262 72.4341 74.346 69.4478L69.7172 58.6502L71.3029 57.0609C71.9502 56.4121 72.3538 55.9907 72.579 55.7142C72.6907 55.5772 72.7649 55.4682 72.8011 55.3801C72.8195 55.3355 72.8311 55.289 72.828 55.2429C72.8247 55.1934 72.8047 55.1506 72.7713 55.1171C72.7383 55.0842 72.6961 55.064 72.6471 55.0601C72.6012 55.0565 72.5551 55.0676 72.5108 55.0853C72.4236 55.1204 72.3163 55.1928 72.182 55.3016C71.9111 55.5212 71.4988 55.9154 70.8647 56.5477C70.3835 57.0276 69.9742 57.4117 69.6776 57.6655C69.5288 57.7928 69.4108 57.8853 69.3275 57.9405C69.3005 57.9584 69.2791 57.9711 69.2628 57.9796C68.8913 57.5492 67.4987 55.8549 66.1771 54.2351C65.4944 53.3983 64.8312 52.5822 64.3388 51.9721C64.0926 51.6669 63.8892 51.4135 63.7474 51.2348C63.7031 51.1789 63.6649 51.1304 63.6334 51.0901C63.7172 51.0863 63.8296 51.0827 63.9685 51.0792C64.302 51.0708 64.7847 51.0631 65.3811 51.0567C66.5736 51.0439 68.2187 51.036 70.0285 51.036H76.3707L75.7465 51.6667ZM65.5254 54.4346C67.0248 56.2509 68.3596 57.874 68.4929 58.043C68.4929 58.043 68.4929 58.043 68.4929 58.043L68.6088 58.1899H62.1534H55.733L59.1711 54.7505C60.1634 53.7579 61.0747 52.8556 61.7437 52.2016C62.0783 51.8746 62.3519 51.6099 62.5447 51.4271C62.6412 51.3356 62.7169 51.2651 62.7696 51.2177C62.7763 51.2117 62.7826 51.2061 62.7885 51.2009C62.7901 51.2025 62.7916 51.2042 62.7933 51.2059C62.834 51.2488 62.8921 51.3129 62.9661 51.3964C63.1139 51.5633 63.3226 51.8052 63.577 52.1042C64.0858 52.702 64.7762 53.527 65.5254 54.4346ZM62.2392 65.172C60.4744 66.9368 58.8588 68.5411 57.6775 69.7041C57.0868 70.2857 56.6049 70.7567 56.2673 71.0823C56.0985 71.2451 55.9661 71.3712 55.8744 71.4564C55.8718 71.4588 55.8692 71.4612 55.8666 71.4636C55.8616 71.3839 55.8567 71.2789 55.852 71.1505C55.8399 70.8257 55.8291 70.3552 55.82 69.7738C55.8017 68.6112 55.7904 67.0073 55.7904 65.2427V58.9247H62.2091H68.4863L62.2392 65.172Z" fill="" stroke="white" stroke-width="0.6"/>
</svg>
