<svg width="127" height="134" viewBox="0 0 127 134" fill="none" xmlns="http://www.w3.org/2000/svg">
<path d="M12.8666 36.9751L61.6742 11.2876L113.742 43.3327L110.829 94.4843L63.0949 121.714L9.25985 92.3633L12.8666 36.9751Z" stroke="white" stroke-opacity="0.6" stroke-width="0.5"/>
<path d="M22.0868 25.7112L80.0081 13.8067L118.596 57.3499L101.804 106.752L50.752 120.626L7.31127 79.6846L22.0868 25.7112Z" stroke="white"/>
<path d="M80.7667 57.3885C80.7091 57.2454 80.6678 57.1041 80.663 56.9898C80.6578 56.8666 80.6729 56.7559 80.7278 56.6816C80.7578 56.6412 80.7993 56.6122 80.8502 56.6015C80.8989 56.5912 80.9473 56.5995 80.9906 56.6158C81.075 56.6477 81.1628 56.7185 81.2493 56.8119C81.3376 56.9073 81.4317 57.0341 81.5273 57.1894C81.7227 57.5068 81.8433 57.8252 81.8715 58.0581C81.8852 58.1704 81.8801 58.2843 81.8288 58.3657C81.8009 58.4101 81.7592 58.4444 81.7045 58.4591L80.7667 57.3885ZM80.7667 57.3885C80.8251 57.5337 80.9037 57.689 80.9899 57.834M80.7667 57.3885L80.9899 57.834M80.9899 57.834C81.076 57.9788 81.1712 58.1158 81.2634 58.2234M80.9899 57.834L81.2634 58.2234M81.2634 58.2234C81.3096 58.2771 81.3562 58.325 81.4018 58.3632M81.2634 58.2234L81.4018 58.3632M81.4018 58.3632C81.4463 58.4005 81.4951 58.433 81.5457 58.4497L81.4018 58.3632ZM56.0627 50.5567L56.0853 50.4593L56.0627 50.5567C57.2483 50.8311 58.7014 51.5304 59.9663 52.3606C61.2344 53.1928 62.2935 54.1435 62.7082 54.9111L62.7962 54.8636L62.7083 54.9111C62.8145 55.1077 62.9186 55.2707 63.0494 55.3606C63.1181 55.4077 63.1942 55.4351 63.2798 55.4378C63.3639 55.4404 63.4507 55.4189 63.5417 55.3787C63.721 55.2993 63.936 55.138 64.2094 54.8941C64.4848 54.6486 64.8275 54.312 65.2629 53.8742C69.9713 49.1404 76.7987 48.99 81.3802 53.5081C83.3775 55.4777 84.4493 57.7689 84.6646 60.2595C84.8801 62.7517 84.2386 65.4511 82.7961 68.2351C79.9101 73.8048 73.8262 79.6969 65.0478 84.9085L63.5043 85.8249L62.3033 85.1244C52.5747 79.4502 45.1859 71.9204 42.9585 65.443C39.9806 56.7826 47.2619 48.5196 56.0627 50.5567ZM57.4097 54.1764L57.4541 54.0867L57.4097 54.1764C58.2606 54.5978 59.1953 55.4225 60.934 57.3032C62.426 58.9173 65.0218 58.8266 66.3121 57.1052C68.6125 54.0362 71.9817 52.6612 75.3907 53.3854C75.6623 53.4431 75.902 53.4699 76.0964 53.4716C76.2867 53.4733 76.4464 53.4512 76.5486 53.4C76.5998 53.3743 76.6531 53.3329 76.6733 53.2673C76.6948 53.1975 76.6695 53.1326 76.6321 53.0833C76.5953 53.0347 76.5392 52.9897 76.4701 52.9475C76.3998 52.9046 76.3105 52.8611 76.2017 52.8175C75.389 52.4917 74.2042 52.4065 72.969 52.5223C71.7315 52.6384 70.4298 52.9574 69.3787 53.4521C68.7742 53.7367 68.3752 53.9603 67.8388 54.4217C67.3066 54.8795 66.6385 55.5718 65.4928 56.7907C64.9162 57.404 64.207 57.7067 63.502 57.7067C62.797 57.7067 62.0879 57.404 61.5113 56.7907C59.3888 54.5328 58.879 54.0803 57.8371 53.5565L57.7921 53.6458L57.8371 53.5565C55.723 52.4937 53.1987 52.1946 51.0768 52.7599C47.8827 53.6107 45.1921 56.4762 44.6151 59.6471C44.1199 62.3678 44.8629 65.3274 46.7704 68.4311C48.6776 71.5346 51.7527 74.7885 55.935 78.1039C56.8865 78.8581 58.687 80.1451 60.2848 81.2427C61.084 81.7916 61.8335 82.294 62.4018 82.6593C62.6859 82.8418 62.9256 82.9907 63.104 83.0942C63.193 83.1459 63.2682 83.1871 63.3266 83.2156C63.3557 83.2299 63.3823 83.2417 63.4052 83.2503C63.4247 83.2575 63.4533 83.267 63.4818 83.267C63.5446 83.267 63.6262 83.2386 63.7116 83.2015C63.8021 83.1621 63.9136 83.105 64.0427 83.033C64.3012 82.8887 64.6369 82.6809 65.0286 82.4251C65.8124 81.9134 66.8254 81.2063 67.9025 80.4239C70.0562 78.8596 72.4722 76.99 73.8315 75.7725C75.0164 74.7112 76.3341 73.3769 77.3558 72.245C77.8666 71.6791 78.3046 71.1624 78.6154 70.7548C78.7707 70.5513 78.8956 70.3731 78.9822 70.2286C79.0254 70.1564 79.0602 70.0908 79.0845 70.0334C79.1078 69.9782 79.1255 69.9213 79.1255 69.8696C79.1255 69.8004 79.119 69.7368 79.1016 69.6837C79.0841 69.6302 79.0518 69.5766 78.9933 69.5472C78.9351 69.5179 78.8725 69.5236 78.8181 69.5413C78.7638 69.559 78.7067 69.592 78.6478 69.6347C78.415 69.8035 78.0665 70.1899 77.5856 70.7946C76.2239 72.507 73.0259 75.5792 70.5979 77.5057C69.6918 78.2247 67.9829 79.448 66.4643 80.4924C65.7053 81.0144 64.9949 81.4909 64.4571 81.8368C64.1881 82.0098 63.9632 82.1496 63.7974 82.2458C63.7144 82.294 63.6475 82.3304 63.5981 82.3546C63.5732 82.3667 63.5544 82.3749 63.5409 82.3799C63.5368 82.3814 63.5338 82.3824 63.5317 82.3831C63.5282 82.3825 63.5224 82.3813 63.5137 82.3789C63.4985 82.3746 63.4785 82.3677 63.4535 82.3576C63.4036 82.3374 63.3388 82.3067 63.2597 82.2654C63.1018 82.1831 62.8933 82.0623 62.6445 81.9099C62.1473 81.6051 61.4939 81.177 60.7711 80.6843C59.3256 79.6991 57.6063 78.4586 56.3096 77.4375C50.7201 73.0361 46.9227 68.3026 45.6412 64.1667C43.376 56.8551 50.5389 50.773 57.4097 54.1764ZM77.1362 53.5479L77.1361 53.548C77.1093 53.5911 77.1127 53.6371 77.1206 53.6685C77.1285 53.7006 77.1442 53.7317 77.1617 53.7598C77.1971 53.8166 77.2523 53.881 77.3195 53.9481C77.4548 54.0835 77.6528 54.2445 77.8808 54.3998L77.9371 54.3172L77.8808 54.3999C78.3266 54.7035 78.9815 55.2116 79.3336 55.5268C79.564 55.733 79.7608 55.8736 79.9147 55.953C79.9912 55.9924 80.062 56.0193 80.1242 56.0293C80.1834 56.0388 80.257 56.0362 80.3119 55.9856C80.3689 55.933 80.3742 55.8586 80.3648 55.7989C80.3551 55.7377 80.3272 55.6689 80.2869 55.5957C80.2055 55.4481 80.06 55.2595 79.8462 55.0382L79.7743 55.1077L79.8461 55.0382C79.3092 54.4828 78.7179 54.0137 78.2305 53.726C77.9877 53.5828 77.7649 53.481 77.5842 53.4385C77.4941 53.4173 77.4075 53.4092 77.3313 53.4229C77.2525 53.4371 77.1812 53.4757 77.1362 53.5479ZM81.5754 59.4716L81.5754 59.4716L81.8899 59.1054L81.9084 59.0071C81.9084 59.0071 81.9084 59.0071 81.9084 59.0071C81.8398 58.9942 81.7757 58.9862 81.721 58.9914C81.6638 58.9969 81.6018 59.0187 81.5631 59.0791C81.5286 59.1329 81.5261 59.1979 81.5313 59.2554C81.5367 59.3156 81.5528 59.388 81.5754 59.4716ZM50.8042 49.1791C44.0157 50.5871 39.6899 57.4098 41.2013 64.3133C41.965 67.802 44.2423 71.5931 47.6891 75.3282C51.1371 79.0644 55.7607 82.7506 61.2278 86.0289C61.323 86.086 61.4141 86.1408 61.5014 86.1934C61.9496 86.463 62.2996 86.6737 62.5929 86.8226C62.9446 87.0012 63.2271 87.0979 63.5139 87.1C63.8011 87.102 64.0796 87.0092 64.4231 86.8353C64.7092 86.6904 65.0489 86.4847 65.4833 86.2216C65.5682 86.1702 65.6566 86.1167 65.749 86.0609C71.1888 82.7789 75.7506 79.1618 79.1648 75.4968C82.5781 71.8326 84.849 68.1155 85.6979 64.6331C88.7342 52.1766 73.8858 43.6706 64.6829 52.5949L63.502 53.74L62.3211 52.5949C59.2005 49.5687 54.9736 48.3143 50.8042 49.1791Z" fill="white" stroke="white" stroke-width="0.2"/>
</svg>
