<svg width="54" height="54" viewBox="0 0 54 54" fill="none" xmlns="http://www.w3.org/2000/svg">
<circle cx="27" cy="27" r="26.4" stroke="white" stroke-opacity="0.5" stroke-width="1.2"/>
<g clip-path="url(#clip0_64_1839)">
<path fill-rule="evenodd" clip-rule="evenodd" d="M37.5188 21.2045C37.664 20.7267 37.5188 20.375 36.8231 20.375H34.5263C33.9418 20.375 33.6722 20.6786 33.5261 21.0138C33.5261 21.0138 32.358 23.8102 30.7034 25.6267C30.1679 26.1535 29.9246 26.3206 29.6324 26.3206C29.4862 26.3206 29.2666 26.1535 29.2666 25.6749V21.2045C29.2666 20.6305 29.1056 20.375 28.6191 20.375H25.0071C24.6423 20.375 24.4226 20.641 24.4226 20.8939C24.4226 21.4372 25.2504 21.5632 25.3352 23.0928V26.416C25.3352 27.1449 25.2014 27.277 24.9091 27.277C24.1304 27.277 22.236 24.4674 21.1116 21.2526C20.8937 20.627 20.6732 20.375 20.0861 20.375H17.7875C17.1312 20.375 17 20.6786 17 21.0138C17 21.6105 17.7787 24.575 20.6269 28.4959C22.5256 31.1734 25.1987 32.625 27.6339 32.625C29.0942 32.625 29.2745 32.303 29.2745 31.7474V29.7235C29.2745 29.0786 29.4128 28.95 29.8756 28.95C30.2169 28.95 30.8005 29.118 32.1637 30.4086C33.7213 31.939 33.9776 32.625 34.8544 32.625H37.1513C37.8075 32.625 38.1365 32.303 37.9475 31.666C37.7393 31.0325 36.9955 30.1129 36.0094 29.0217C35.4739 28.4005 34.6706 27.7311 34.4265 27.396C34.0861 26.9664 34.1833 26.7747 34.4265 26.3924C34.4265 26.3924 37.2265 22.5196 37.5179 21.2045H37.5188Z" fill="white" fill-opacity="0.5"/>
</g>
<defs>
<clipPath id="clip0_64_1839">
<rect width="21" height="21" fill="white" transform="translate(17 16)"/>
</clipPath>
</defs>
</svg>
