<svg width="54" height="54" viewBox="0 0 54 54" fill="none" xmlns="http://www.w3.org/2000/svg">
<circle cx="27" cy="27" r="26.4" stroke="white" stroke-opacity="0.5" stroke-width="1.2"/>
<path d="M27.5002 23.7666C25.9949 23.7666 24.7665 24.995 24.7665 26.5003C24.7665 28.0056 25.9949 29.234 27.5002 29.234C29.0055 29.234 30.2339 28.0056 30.2339 26.5003C30.2339 24.995 29.0055 23.7666 27.5002 23.7666ZM35.6992 26.5003C35.6992 25.3683 35.7095 24.2465 35.6459 23.1165C35.5823 21.804 35.2829 20.6392 34.3232 19.6794C33.3614 18.7176 32.1986 18.4202 30.8861 18.3567C29.754 18.2931 28.6323 18.3033 27.5023 18.3033C26.3702 18.3033 25.2485 18.2931 24.1185 18.3567C22.806 18.4202 21.6411 18.7197 20.6814 19.6794C19.7196 20.6412 19.4222 21.804 19.3586 23.1165C19.295 24.2486 19.3053 25.3703 19.3053 26.5003C19.3053 27.6303 19.295 28.7541 19.3586 29.8841C19.4222 31.1966 19.7216 32.3615 20.6814 33.3212C21.6432 34.283 22.806 34.5804 24.1185 34.644C25.2505 34.7075 26.3723 34.6973 27.5023 34.6973C28.6343 34.6973 29.7561 34.7075 30.8861 34.644C32.1986 34.5804 33.3634 34.281 34.3232 33.3212C35.285 32.3594 35.5823 31.1966 35.6459 29.8841C35.7115 28.7541 35.6992 27.6323 35.6992 26.5003ZM27.5002 30.7065C25.1726 30.7065 23.2941 28.828 23.2941 26.5003C23.2941 24.1727 25.1726 22.2942 27.5002 22.2942C29.8279 22.2942 31.7064 24.1727 31.7064 26.5003C31.7064 28.828 29.8279 30.7065 27.5002 30.7065ZM31.8786 23.1042C31.3352 23.1042 30.8963 22.6654 30.8963 22.1219C30.8963 21.5784 31.3352 21.1396 31.8786 21.1396C32.4221 21.1396 32.861 21.5784 32.861 22.1219C32.8611 22.2509 32.8358 22.3788 32.7865 22.498C32.7372 22.6173 32.6649 22.7256 32.5736 22.8169C32.4824 22.9081 32.374 22.9805 32.2548 23.0298C32.1355 23.0791 32.0077 23.1044 31.8786 23.1042Z" fill="white" fill-opacity="0.5"/>
</svg>
