<svg width="85" height="117" viewBox="0 0 85 117" fill="none" xmlns="http://www.w3.org/2000/svg">
<g clip-path="url(#clip0_1907_8581)">
<path d="M13.3214 0.546387H71.1787M13.3214 0.546387L19.2972 9.75391M13.3214 0.546387L0.554688 12.1912M71.1787 0.546387L64.9315 9.75391M71.1787 0.546387L83.9452 12.1912M19.2972 9.75391H64.9315M19.2972 9.75391L9.51851 18.9614M19.2972 9.75391L42.1142 19.7739M19.2972 9.75391C20.4385 13.2458 21.1008 17.3856 21.3908 21.9403M0.554688 12.1912L9.51851 18.9614M0.554688 12.1912V104.538M64.9315 9.75391L42.1142 19.7739M64.9315 9.75391L75.2532 18.9614M64.9315 9.75391C64.0003 12.891 62.8597 17.0806 62.7582 21.9403M83.9452 12.1912L75.2532 18.9614M83.9452 12.1912V104.538M42.1142 19.7739C33.9299 20.9778 29.3681 21.5485 21.3908 21.9403M42.1142 19.7739C49.8422 20.9818 54.3668 21.4545 62.7582 21.9403M75.2532 18.9614V98.038M75.2532 18.9614C69.3361 36.0261 63.4196 74.3969 63.3856 95.0589M75.2532 18.9614C70.5278 20.7328 67.7754 21.3213 62.7582 21.9403M62.7582 21.9403C63.3017 47.1257 72.2651 92.3509 75.2532 98.038M9.51851 18.9614V98.038M9.51851 18.9614C16.7251 38.1209 22.0138 75.5188 21.7968 95.0589M9.51851 18.9614C13.6492 20.5017 16.0914 21.271 21.3908 21.9403M21.3908 21.9403C23.1022 48.8244 11.8413 90.1646 9.51851 98.038M0.554688 104.538L13.3214 116.453M0.554688 104.538L9.51851 98.038M9.51851 98.038L19.2972 107.516M9.51851 98.038C14.0684 95.9801 16.7567 95.3191 21.7968 95.0589M21.7968 95.0589C21.7194 102.033 20.9405 106.733 19.2972 107.516M21.7968 95.0589C29.5748 95.2109 34.2325 94.9769 42.1142 97.2256M75.2532 98.038L64.9315 107.516M75.2532 98.038L83.9452 104.538M75.2532 98.038C70.9917 96.102 68.3743 95.4892 63.3856 95.0589M63.3856 95.0589C63.3757 100.956 63.8457 105.412 64.9315 107.516M63.3856 95.0589C54.2988 95.2535 49.7808 94.9895 42.1142 97.2256M83.9452 104.538L71.1787 116.453M64.9315 107.516L71.1787 116.453M64.9315 107.516H19.2972M64.9315 107.516L42.1142 97.2256M71.1787 116.453H13.3214M19.2972 107.516L13.3214 116.453M19.2972 107.516L42.1142 97.2256" stroke="white" stroke-width="1.13084"/>
</g>
<defs>
<clipPath id="clip0_1907_8581">
<rect width="85" height="117" fill="white"/>
</clipPath>
</defs>
</svg>
