<svg width="13" height="13" viewBox="0 0 13 13" fill="none" xmlns="http://www.w3.org/2000/svg">
<path d="M7.57167 6.5L12.9608 0.261196C13.0512 0.157515 12.9752 0 12.8356 0H11.1973C11.1008 0 11.0084 0.0418711 10.9448 0.11365L6.5 5.25981L2.05523 0.11365C1.99364 0.0418711 1.90125 0 1.80271 0H0.164406C0.0248007 0 -0.0511609 0.157515 0.0391717 0.261196L5.42833 6.5L0.0391717 12.7388C0.0189364 12.7619 0.00595463 12.7902 0.00176724 12.8202C-0.00242016 12.8503 0.00236267 12.8809 0.0155484 12.9084C0.0287341 12.9359 0.0497688 12.9591 0.0761548 12.9754C0.102541 12.9916 0.13317 13.0002 0.164406 13H1.80271C1.8992 13 1.99159 12.9581 2.05523 12.8863L6.5 7.74018L10.9448 12.8863C11.0064 12.9581 11.0987 13 11.1973 13H12.8356C12.9752 13 13.0512 12.8425 12.9608 12.7388L7.57167 6.5Z" fill="white" fill-opacity="0.5"/>
</svg>
