<svg width="105" height="107" viewBox="0 0 105 107" fill="none" xmlns="http://www.w3.org/2000/svg">
<path d="M104 91L80.0465 100.6M104 91L100.407 66.4M104 91L93.2209 84.79M80.0465 100.6L52.5 106M80.0465 100.6L52.5 94.6M80.0465 100.6L93.2209 84.79M52.5 106L24.3547 100.6M52.5 106V94.6M24.3547 100.6L1 91M24.3547 100.6L52.5 94.6M24.3547 100.6L12.3779 84.4M1 91L4.59303 66.4M1 91L12.3779 84.4M4.59303 66.4L14.7733 38.8M4.59303 66.4L12.3779 84.4M4.59303 66.4L24.3547 44.8M14.7733 38.8L32.7384 18.4M14.7733 38.8L24.3547 44.8M32.7384 18.4L52.5 0.999996M32.7384 18.4L24.3547 44.8M32.7384 18.4L52.5 16.6M52.5 0.999996L72.2616 18.4M52.5 0.999996V16.6M72.2616 18.4L90.2267 38.8M72.2616 18.4L52.5 16.6M72.2616 18.4L80.0465 44.8M90.2267 38.8L100.407 66.4M90.2267 38.8L80.0465 44.8M100.407 66.4L93.2209 84.79M100.407 66.4L80.0465 44.8M80.0465 77.2L52.5 94.6M80.0465 77.2V44.8M80.0465 77.2L93.2209 84.79M52.5 94.6L24.3547 77.2M24.3547 77.2V44.8M24.3547 77.2L12.3779 84.4M24.3547 44.8L52.5 29.2M52.5 29.2L80.0465 44.8M52.5 29.2V16.6M12.3779 84.4L52.5 16.6M12.3779 84.4L93.2209 84.79M52.5 16.6L93.2209 84.79" stroke="white" stroke-width="1.19767"/>
</svg>
