<svg width="53" height="54" viewBox="0 0 53 54" fill="none" xmlns="http://www.w3.org/2000/svg">
<circle cx="26.5" cy="26.7422" r="25.9" stroke="white" stroke-opacity="0.5" stroke-width="1.2"/>
<g clip-path="url(#clip0_64_52)">
<path fill-rule="evenodd" clip-rule="evenodd" d="M36.5188 21.4467C36.664 20.9689 36.5188 20.6172 35.8231 20.6172H33.5263C32.9418 20.6172 32.6722 20.9208 32.5261 21.2559C32.5261 21.2559 31.358 24.0524 29.7034 25.8689C29.1679 26.3957 28.9246 26.5628 28.6324 26.5628C28.4862 26.5628 28.2666 26.3957 28.2666 25.9171V21.4467C28.2666 20.8727 28.1056 20.6172 27.6191 20.6172H24.0071C23.6423 20.6172 23.4226 20.8832 23.4226 21.1361C23.4226 21.6794 24.2504 21.8054 24.3352 23.3349V26.6582C24.3352 27.3871 24.2014 27.5192 23.9091 27.5192C23.1304 27.5192 21.236 24.7096 20.1116 21.4948C19.8937 20.8692 19.6732 20.6172 19.0861 20.6172H16.7875C16.1312 20.6172 16 20.9208 16 21.2559C16 21.8527 16.7787 24.8172 19.6269 28.7381C21.5256 31.4156 24.1987 32.8672 26.6339 32.8672C28.0942 32.8672 28.2745 32.5452 28.2745 31.9896V29.9657C28.2745 29.3208 28.4128 29.1922 28.8756 29.1922C29.2169 29.1922 29.8005 29.3602 31.1637 30.6508C32.7213 32.1812 32.9776 32.8672 33.8544 32.8672H36.1513C36.8075 32.8672 37.1365 32.5452 36.9475 31.9082C36.7393 31.2747 35.9955 30.3551 35.0094 29.2639C34.4739 28.6427 33.6706 27.9733 33.4265 27.6382C33.0861 27.2086 33.1833 27.0169 33.4265 26.6346C33.4265 26.6346 36.2265 22.7618 36.5179 21.4467H36.5188Z" fill="white"/>
</g>
<defs>
<clipPath id="clip0_64_52">
<rect width="21" height="21" fill="white" transform="translate(16 16.2422)"/>
</clipPath>
</defs>
</svg>
