<svg width="54" height="54" viewBox="0 0 54 54" fill="none" xmlns="http://www.w3.org/2000/svg">
<circle cx="27" cy="27" r="26.4" stroke="white" stroke-opacity="0.5" stroke-width="1.2"/>
<path d="M34.481 22.2691C31.841 18.1991 26.451 16.9891 22.271 19.5191C18.201 22.0491 16.881 27.5491 19.521 31.6191L19.741 31.9491L18.861 35.2491L22.161 34.3691L22.491 34.5891C23.921 35.3591 25.461 35.7991 27.001 35.7991C28.651 35.7991 30.301 35.3591 31.731 34.4791C35.801 31.8391 37.011 26.4491 34.481 22.2691ZM32.171 30.7391C31.731 31.3991 31.181 31.8391 30.411 31.9491C29.971 31.9491 29.421 32.1691 27.221 31.2891C25.351 30.4091 23.811 28.9791 22.711 27.3291C22.051 26.5591 21.721 25.5691 21.611 24.5791C21.611 23.6991 21.941 22.9291 22.491 22.3791C22.711 22.1591 22.931 22.0491 23.151 22.0491H23.701C23.921 22.0491 24.141 22.0491 24.251 22.4891C24.471 23.0391 25.021 24.3591 25.021 24.4691C25.131 24.5791 25.131 24.7991 25.021 24.9091C25.131 25.1291 25.021 25.3491 24.911 25.4591C24.801 25.5691 24.691 25.7891 24.581 25.8991C24.361 26.0091 24.251 26.2291 24.361 26.4491C24.801 27.1091 25.351 27.7691 25.901 28.3191C26.561 28.8691 27.221 29.3091 27.991 29.6391C28.211 29.7491 28.431 29.7491 28.541 29.5291C28.651 29.3091 29.201 28.7591 29.421 28.5391C29.641 28.3191 29.751 28.3191 29.971 28.4291L31.731 29.3091C31.951 29.4191 32.171 29.5291 32.281 29.6391C32.391 29.9691 32.391 30.4091 32.171 30.7391Z" fill="white" fill-opacity="0.5"/>
</svg>
