<svg width="53" height="54" viewBox="0 0 53 54" fill="none" xmlns="http://www.w3.org/2000/svg">
<circle cx="26.5" cy="26.7422" r="25.9" stroke="white" stroke-opacity="0.5" stroke-width="1.2"/>
<path d="M35.2232 21.6037C35.1137 21.1956 34.8988 20.8234 34.6002 20.5244C34.3016 20.2254 33.9297 20.0101 33.5217 19.9C32.0199 19.4961 26 19.4961 26 19.4961C26 19.4961 19.9801 19.4961 18.4783 19.8979C18.0702 20.0076 17.6981 20.2228 17.3994 20.5218C17.1007 20.8209 16.886 21.1933 16.7768 21.6016C16.375 23.1055 16.375 26.2422 16.375 26.2422C16.375 26.2422 16.375 29.3789 16.7768 30.8807C16.998 31.71 17.6512 32.3631 18.4783 32.5844C19.9801 32.9883 26 32.9883 26 32.9883C26 32.9883 32.0199 32.9883 33.5217 32.5844C34.351 32.3631 35.002 31.71 35.2232 30.8807C35.625 29.3789 35.625 26.2422 35.625 26.2422C35.625 26.2422 35.625 23.1055 35.2232 21.6037ZM24.0879 29.1211V23.3633L29.0723 26.2207L24.0879 29.1211Z" fill="white"/>
</svg>
